<ttFont>
<head>
    <!-- Most of this table will be recalculated by the compiler -->
    <tableVersion value="1.0"/>
    <fontRevision value="1.0"/>
    <checkSumAdjustment value="0xafaf813f"/>
    <magicNumber value="0x5f0f3cf5"/>
    <flags value="00000000 00000011"/>
    <unitsPerEm value="2048"/>
    <created value="Thu Aug 15 19:06:51 2019"/>
    <modified value="Fri Aug 16 02:18:54 2019"/>
    <xMin value="-513"/>
    <yMin value="-516"/>
    <xMax value="3458"/>
    <yMax value="2007"/>
<macStyle value="00000000 00000001"/>
    <lowestRecPPEM value="3"/>
    <fontDirectionHint value="2"/>
    <indexToLocFormat value="0"/>
    <glyphDataFormat value="0"/>
  </head>
          <CharString index="0">
            rmoveto
            -444 -54 0 -46 return
          </CharString>
          <CharString index="1">
            -634 vlineto
            43 callsubr
            return
          </CharString>
          <CharString index="2">
            234 145 -279 -409 -396 return
          </CharString>
          <CharString index="3">
            450 -339 292 return
          </CharString>
          <CharString index="4">
            rmoveto
            60 callsubr
            return
          </CharString>
          <CharString index="5">
            -428 -459 -302 -328 -419 vhcurveto
            return
          </CharString>
          <CharString index="6">
            393 14 rmoveto
            396 106 269 258 return
          </CharString>
          <CharString index="7">
            313 -239 199 -320 -321 -241 -213 -307 return
          </CharString>
          <CharString index="8">
            119 callsubr
            endchar
          </CharString>
          <CharString index="9">
            rmoveto
            164 129 68 102 39 hvcurveto
            return
          </CharString>
          <CharString index="10">
            44 callsubr
            endchar
          </CharString>
          <CharString index="11">
            rmoveto
            322 241 214 307 return
          </CharString>
          <CharString index="12">
            144 callsubr
            endchar
          </CharString>
          <CharString index="13">
            rmoveto
            -13 callsubr
            56 callsubr
            endchar
          </CharString>
          <CharString index="14">
            544 49 vlineto
            -87 16 -13 18 70 vvcurveto
            return
          </CharString>
          <CharString index="15">
            1529 rmoveto
            385 284 rlineto
            6 return
          </CharString>
          <CharString index="16">
            -332 vlineto
            -115 -289 rlineto
            return
          </CharString>
          <CharString index="17">
            51 -16 rlineto
            -79 callsubr
            return
          </CharString>
          <CharString index="18">
            21 -22 24 90 vvcurveto
            endchar
          </CharString>
          <CharString index="19">
            rmoveto
            5 callsubr
            1161 vlineto
            -76 callsubr
            -31 callsubr
            -2 callsubr
            endchar
          </CharString>
          <CharString index="20">
            -75 callsubr
            endchar
          </CharString>
          <CharString index="21">
            629 -48 callgsubr
            -522 vlineto
            -70 -15 -19 -85 -15 vhcurveto
            -49 544 49 vlineto
            99 callgsubr
            return
          </CharString>
          <CharString index="22">
            rmoveto
            -318 235 -197 298 return
          </CharString>
          <CharString index="23">
            57 callsubr
            endchar
          </CharString>
          <CharString index="24">
            52 -16 rlineto
            55 -19 8 -14 -51 callgsubr
            122 78 114 51 vhcurveto
            -184 vlineto
            return
          </CharString>
          <CharString index="25">
            rmoveto
            -24 callgsubr
            198 callsubr
            endchar
          </CharString>
          <CharString index="26">
            624 49 vlineto
            -112 return
          </CharString>
          <CharString index="27">
            51 callsubr
            endchar
          </CharString>
          <CharString index="28">
            56 -19 8 -14 -65 vvcurveto
            return
          </CharString>
          <CharString index="29">
            rmoveto
            1076 61 callsubr
            2 callsubr
            return
          </CharString>
          <CharString index="30">
            rmoveto
            -74 -61 -55 -74 -73 61 -56 74 return
          </CharString>
          <CharString index="31">
            14 428 rlineto
            -47 hlineto
            return
          </CharString>
          <CharString index="32">
            559 49 vlineto
            -97 17 -18 21 72 vvcurveto
            return
          </CharString>
          <CharString index="33">
            1102 rmoveto
            402 369 rlineto
            7 return
          </CharString>
          <CharString index="34">
            rmoveto
            -442 -54 0 -46 51 -16 rlineto
            return
          </CharString>
          <CharString index="35">
            rmoveto
            583 150 -583 hlineto
            endchar
          </CharString>
          <CharString index="36">
            rmoveto
            348 -829 -75 -131 -133 -177 -97 -99 rlinecurve
            -4 241 vlineto
            151 423 133 317 193 471 61 149 28 28 82 16 rlinecurve
            50 -338 -50 vlineto
            113 -16 13 -32 -48 -137 rrcurveto
            -154 -444 -157 448 -46 134 11 32 115 15 rlinecurve
            50 -595 -50 vlineto
            78 -16 25 -25 51 -123 rrcurveto
            endchar
          </CharString>
          <CharString index="37">
            rmoveto
            108 67 72 140 -3 hvcurveto
            -55 hlineto
            -57 -1 return
          </CharString>
          <CharString index="38">
            646 49 vlineto
            -124 18 -22 return
          </CharString>
          <CharString index="39">
            1076 vlineto
            91 22 24 return
          </CharString>
          <CharString index="40">
            55 -19 9 -14 -65 vvcurveto
            return
          </CharString>
          <CharString index="41">
            rmoveto
            308 -549 rlineto
            -446 0 callsubr
            -69 callsubr
            33 99 vvcurveto
            468 vlineto
            195 callsubr
            endchar
          </CharString>
          <CharString index="42">
            490 1498 -107 callsubr
            -38 callsubr
            -52 callsubr
            return
          </CharString>
          <CharString index="43">
            -393 rlineto
            47 hlineto
            51 241 85 69 232 22 45 4 rcurveline
            return
          </CharString>
          <CharString index="44">
            113 20 vhcurveto
            49 -616 -49 vlineto
            105 -19 21 -23 -86 vvcurveto
            return
          </CharString>
          <CharString index="45">
            rmoveto
            83 66 58 77 78 -66 58 -83 -82 return
          </CharString>
          <CharString index="46">
            488 1007 -73 callsubr
            return
          </CharString>
          <CharString index="47">
            -49 hlineto
            114 -21 21 -24 -90 vvcurveto
            return
          </CharString>
          <CharString index="48">
            rmoveto
            82 67 58 77 78 -67 58 -82 return
          </CharString>
          <CharString index="49">
            1529 rmoveto
            241 136 return
          </CharString>
          <CharString index="50">
            240 -136 62 0 -209 return
          </CharString>
          <CharString index="51">
            -1076 -86 callgsubr
            return
          </CharString>
          <CharString index="52">
            -82 -89 callgsubr
          </CharString>
          <CharString index="53">
            -497 -574 497 vlineto
            85 22 24 104 18 vhcurveto
            50 -616 83 callsubr
            -56 callsubr
            return
          </CharString>
          <CharString index="54">
            1546 rmoveto
            76 60 55 73 74 -60 54 -76 -88 callgsubr
            return
          </CharString>
          <CharString index="55">
            -1124 vlineto
            43 callsubr
            return
          </CharString>
          <CharString index="56">
            22 -24 -90 vvcurveto
            -56 callsubr
            return
          </CharString>
          <CharString index="57">
            -1188 0 callsubr
            return
          </CharString>
          <CharString index="58">
            185 0 209 289 rlineto
            return
          </CharString>
          <CharString index="59">
            rmoveto
            586 136 -586 hlineto
            return
          </CharString>
          <CharString index="60">
            -40 callsubr
            endchar
          </CharString>
          <CharString index="61">
            33 99 vvcurveto
            1188 return
          </CharString>
          <CharString index="62">
            87 callsubr
            -280 79 callsubr
            return
          </CharString>
          <CharString index="63">
            1146 rmoveto
            88 72 64 -21 callgsubr
            -64 89 hvcurveto
            return
          </CharString>
          <CharString index="64">
            1300 1444 rmoveto
            -1248 hlineto
            -13 return
          </CharString>
          <CharString index="65">
            1588 rmoveto
            565 142 -565 hlineto
            return
          </CharString>
          <CharString index="66">
            1151 rmoveto
            114 82 84 216 return
          </CharString>
          <CharString index="67">
            616 49 vlineto
            -105 19 -21 23 86 vvcurveto
            return
          </CharString>
          <CharString index="68">
            -331 vlineto
            -133 -376 rlineto
            return
          </CharString>
          <CharString index="69">
            51 -17 rlineto
            -79 callsubr
            return
          </CharString>
          <CharString index="70">
            -60 -54 -74 -73 60 -55 76 hvcurveto
            return
          </CharString>
          <CharString index="71">
            1478 rmoveto
            173 vlineto
            return
          </CharString>
          <CharString index="72">
            1102 111 callgsubr
            return
          </CharString>
          <CharString index="73">
            85 21 24 105 18 vhcurveto
            50 return
          </CharString>
          <CharString index="74">
            rmoveto
            -163 139 -102 184 -28 vhcurveto
            -204 -23 -116 -91 -1 -129 rrcurveto
            -132 136 -83 201 vhcurveto
            -266 -12 -111 -74 -106 vvcurveto
            -137 1 196 -92 320 hhcurveto
            306 240 150 221 194 -143 114 -285 hvcurveto
            -168 hlineto
            -114 -57 32 57 51 42 33 68 14 hvcurveto
            -5 41 37 -3 39 hhcurveto
            267 211 118 200 108 -69 89 -108 39 hvcurveto
            277 -21 0 92 -339 -23 rlineto
            24 -66 -86 17 -94 hhcurveto
            -274 -204 -130 -199 hvcurveto
            322 12 rmoveto
            157 53 99 105 103 60 -105 -160 -158 -56 -98 -102 -101 -62 103 162 vhcurveto
            -86 -935 rmoveto
            91 57 60 103 11 vhcurveto
            151 hlineto
            146 65 -58 -96 -116 -111 -75 -163 -154 -94 76 107 hvcurveto
            endchar
          </CharString>
          <CharString index="75">
            -222 130 -89 169 126 112 57 60 42 vhcurveto
            231 callsubr
            627 78 callsubr
            260 -38 vlineto
            -402 -294 rlineto
            -43 113 vlineto
            return
          </CharString>
          <CharString index="76">
            -61 -277 -89 -72 -284 -13 rrcurveto
            -204 -9 0 653 201 -5 129 -6 32 -53 30 -152 rlinecurve
            43 490 -43 hlineto
            -31 -153 return
          </CharString>
          <CharString index="77">
            -277 -152 324 367 398 161 265 265 -2 callgsubr
          </CharString>
          <CharString index="78">
            1529 rmoveto
            61 hlineto
            -106 289 rlineto
            -343 -6 hlineto
            return
          </CharString>
          <CharString index="79">
            rmoveto
            -75 -60 -55 -74 -73 60 -56 75 -21 callsubr
          </CharString>
          <CharString index="80">
            1198 rmoveto
            627 167 -627 hlineto
            return
          </CharString>
          <CharString index="81">
            636 49 vlineto
            -124 18 -22 33 99 vvcurveto
            return
          </CharString>
          <CharString index="82">
            -240 135 -62 0 209 -289 return
          </CharString>
          <CharString index="83">
            535 1444 -14 callsubr
            return
          </CharString>
          <CharString index="84">
            289 -185 0 -209 -289 rlineto
            return
          </CharString>
          <CharString index="85">
            75 60 56 73 74 -60 55 -75 hvcurveto
            endchar
          </CharString>
          <CharString index="86">
            74 61 56 73 74 -61 55 -74 hvcurveto
            endchar
          </CharString>
          <CharString index="87">
            -169 -123 -77 -113 -52 vhcurveto
            return
          </CharString>
          <CharString index="88">
            -66 -58 -78 -77 66 -58 82 hvcurveto
            endchar
          </CharString>
          <CharString index="89">
            1546 -6 callgsubr
            return
          </CharString>
          <CharString index="90">
            -585 -224 rlineto
            -49 vlineto
            return
          </CharString>
          <CharString index="91">
            rmoveto
            278 -782 177 0 258 724 259 -724 176 0 263 742 56 161 32 27 78 16 rlinecurve
            50 -320 -50 vlineto
            98 -15 14 -33 -43 -149 rrcurveto
            -137 -453 -136 455 -43 147 11 35 98 13 rlinecurve
            50 -550 -50 vlineto
            95 -14 12 -34 -41 -145 rrcurveto
            -140 -457 -133 455 -41 147 10 35 101 13 rlinecurve
            50 -584 -50 vlineto
            78 -17 31 -27 43 -120 rrcurveto
            endchar
          </CharString>
          <CharString index="92">
            rmoveto
            -447 322 -298 469 209 209 53 88 120 vhcurveto
            403 vlineto
            89 21 24 107 14 vhcurveto
            49 -579 -49 vlineto
            114 -14 21 -24 -89 vvcurveto
            -417 vlineto
            -34 -39 -75 -25 -90 hhcurveto
            -271 -145 321 370 398 157 265 272 214 141 -176 -239 53 hvcurveto
            47 hlineto
            -10 391 rlineto
            54 -81 -162 38 -217 hhcurveto
            -446 -361 -257 -488 hvcurveto
            endchar
          </CharString>
          <CharString index="93">
            rmoveto
            -496 -49 hlineto
            105 -22 28 -38 -103 vvcurveto
            -13 -966 -2 -159 -20 -39 -116 -19 rlinecurve
            -49 380 50 vlineto
            -122 18 -21 38 -2 162 rrcurveto
            -19 968 790 -1236 270 0 15 1178 3 159 19 39 116 19 rlinecurve
            49 -380 -50 vlineto
            123 -18 19 -38 4 -162 19 -832 rcurveline
            return
          </CharString>
          <CharString index="94">
            -419 1181 -234 0 -411 -1145 -70 -198 -33 -36 -104 -19 rlinecurve
            -49 401 49 vlineto
            -137 21 -20 44 59 184 rrcurveto
            65 197 448 0 74 -220 54 -164 -25 -43 -127 -19 rlinecurve
            -49 return
          </CharString>
          <CharString index="95">
            1138 rmoveto
            82 callgsubr
            return
          </CharString>
          <CharString index="96">
            rmoveto
            -470 348 -279 458 197 175 46 53 76 vhcurveto
            11 394 rlineto
            -29 callgsubr
            return
          </CharString>
          <CharString index="97">
            292 96 292 -96 0 50 -273 216 -39 0 -272 -216 rlineto
            return
          </CharString>
          <CharString index="98">
            1503 rmoveto
            -258 -184 -256 184 -63 0 return
          </CharString>
          <CharString index="99">
            1102 rmoveto
            62 hlineto
            -125 376 rlineto
            -344 -7 hlineto
            return
          </CharString>
          <CharString index="100">
            15 452 rlineto
            -48 hlineto
            -66 -292 -98 -83 -256 -14 return
          </CharString>
          <CharString index="101">
            vlineto
            45 -4 234 -23 83 -71 51 -238 rlinecurve
            47 hlineto
            return
          </CharString>
          <CharString index="102">
            -108 -67 -73 -139 3 hvcurveto
            55 hlineto
            57 1 27 return
          </CharString>
          <CharString index="103">
            338 hmoveto
            -97 callgsubr
            91 callsubr
            return
          </CharString>
          <CharString index="104">
            210 -289 184 0 209 289 rlineto
            return
          </CharString>
          <CharString index="105">
            -31 -53 -129 27 callgsubr
            return
          </CharString>
          <CharString index="106">
            rmoveto
            240 165 238 -165 return
          </CharString>
          <CharString index="107">
            vlineto
            -99 -22 -33 -123 -18 vhcurveto
            -49 return
          </CharString>
          <CharString index="108">
            1837 rmoveto
            -241 -135 return
          </CharString>
          <CharString index="109">
            -1076 vlineto
            -78 callgsubr
            return
          </CharString>
          <CharString index="110">
            292 96 293 -96 0 50 return
          </CharString>
          <CharString index="111">
            1694 83 720 rmoveto
            return
          </CharString>
          <CharString index="112">
            -1114 77 callsubr
            return
          </CharString>
          <CharString index="113">
            -616 -49 vlineto
            113 -21 return
          </CharString>
          <CharString index="114">
            740 151 291 rmoveto
            return
          </CharString>
          <CharString index="115">
            rmoveto
            366 -1181 221 0 352 1154 342 -1154 224 0 359 1145 61 198 35 37 103 18 rlinecurve
            49 -396 -49 vlineto
            133 -21 17 -42 -50 -183 rrcurveto
            -230 -841 -240 878 -44 158 9 31 121 20 rlinecurve
            49 -623 -49 vlineto
            124 -21 14 -31 -43 -160 rrcurveto
            -237 -874 -242 868 -42 157 19 42 130 19 rlinecurve
            49 -668 -49 vlineto
            96 -17 38 -35 51 -165 rrcurveto
            endchar
          </CharString>
          <CharString index="116">
            rmoveto
            531 vlineto
            103 -1 390 -707 rlineto
            430 47 hlineto
            -63 24 -41 40 -124 222 rrcurveto
            -348 640 186 194 151 151 75 50 118 27 rlinecurve
            49 -433 -49 vlineto
            128 -19 6 -41 -112 -133 rrcurveto
            -364 -432 -102 -1 rlineto
            498 vlineto
            -34 callsubr
            6 callsubr
            -51 callsubr
            -47 callsubr
          </CharString>
          <CharString index="117">
            1660 543 177 rmoveto
            -75 callgsubr
            return
          </CharString>
          <CharString index="118">
            rmoveto
            -443 -54 0 -46 51 -16 rlineto
            -67 callsubr
            -656 vlineto
            -315 -39 127 callsubr
            -22 callgsubr
          </CharString>
          <CharString index="119">
            1102 rmoveto
            258 184 256 -184 63 0 -229 376 -181 0 -229 -376 rlineto
            return
          </CharString>
          <CharString index="120">
            rmoveto
            180 150 69 106 74 hvcurveto
            141 callsubr
            -317 235 -198 295 hvcurveto
            endchar
          </CharString>
          <CharString index="121">
            rmoveto
            61 50 44 61 62 -50 -58 callgsubr
            349 hmoveto
            29 callsubr
            -61 return
          </CharString>
          <CharString index="122">
            -963 vlineto
            -365 -67 -156 -204 -134 vhcurveto
            20 -53 callgsubr
          </CharString>
          <CharString index="123">
            rmoveto
            82 66 58 77 78 -66 58 -82 -83 -66 -58 -78 -77 66 -58 83 hvcurveto
            endchar
          </CharString>
          <CharString index="124">
            -145 -6 rcurveline
            1192 101 callgsubr
            -56 callsubr
            vlineto
            return
          </CharString>
          <CharString index="125">
            68 hlineto
            261 376 rmoveto
            -272 -7 hlineto
            251 -369 rlineto
            65 hlineto
            return
          </CharString>
          <CharString index="126">
            -3 -27 -30 -44 hhcurveto
            -30 -25 11 25 -38 hvcurveto
            -30 19 rlineto
            35 -53 -46 21 return
          </CharString>
          <CharString index="127">
            1292 469 1007 -107 callsubr
            -83 callsubr
            return
          </CharString>
          <CharString index="128">
            1193 1141 hmoveto
            -7 callsubr
            17 callsubr
            return
          </CharString>
          <CharString index="129">
            rmoveto
            141 99 69 109 109 -90 65 -119 -91 -66 -41 -49 return
          </CharString>
          <CharString index="130">
            1859 rmoveto
            148 vlineto
            -600 -191 rlineto
            return
          </CharString>
          <CharString index="131">
            1503 rmoveto
            -257 -184 -257 184 return
          </CharString>
          <CharString index="132">
            1 callsubr
            -239 135 -63 0 return
          </CharString>
          <CharString index="133">
            1102 rmoveto
            257 184 257 -184 return
          </CharString>
          <CharString index="134">
            731 543 184 -78 callsubr
            return
          </CharString>
          <CharString index="135">
            456 hmoveto
            83 68 61 81 82 -68 60 -83 return
          </CharString>
          <CharString index="136">
            62 49 44 61 62 -49 45 -62 hvcurveto
            -10 hlineto
            return
          </CharString>
          <CharString index="137">
            hvcurveto
            -32 6 callgsubr
            32 -22 rlineto
            -39 return
          </CharString>
          <CharString index="138">
            1538 746 113 callsubr
            return
          </CharString>
          <CharString index="139">
            289 -184 0 -210 -289 rlineto
            return
          </CharString>
          <CharString index="140">
            -170 -124 -78 -114 -50 vhcurveto
            return
          </CharString>
          <CharString index="141">
            -84 -67 -60 -82 -81 67 -61 84 hvcurveto
            return
          </CharString>
          <CharString index="142">
            1429 -48 callsubr
            return
          </CharString>
          <CharString index="143">
            -332 vlineto
            -132 -376 rlineto
            return
          </CharString>
          <CharString index="144">
            339 hmoveto
            65 callsubr
            return
          </CharString>
          <CharString index="145">
            71 495 -85 callsubr
            return
          </CharString>
          <CharString index="146">
            -49 -45 -62 -61 49 -44 61 hvcurveto
            return
          </CharString>
          <CharString index="147">
            rmoveto
            602 116 -602 hlineto
            return
          </CharString>
          <CharString index="148">
            23 callsubr
            -42 vlineto
            return
          </CharString>
          <CharString index="149">
            -584 -224 rlineto
            -49 vlineto
            return
          </CharString>
          <CharString index="150">
            -72 -18 -21 -97 -17 vhcurveto
            -49 return
          </CharString>
          <CharString index="151">
            -109 19 107 -56 120 hhcurveto
            87 76 23 29 41 hvcurveto
            46 vlineto
            -3 -10 -14 -2 -15 hhcurveto
            -55 -41 35 83 hvcurveto
            479 vlineto
            234 -169 104 -282 -276 -171 -112 -138 -80 65 -59 82 83 65 62 80 69 -48 55 -63 13 vhcurveto
            20 44 51 11 55 hhcurveto
            154 89 -71 -183 hvcurveto
            -105 vlineto
            -196 -40 rlineto
            -306 -61 -115 -102 -150 vvcurveto
            -145 119 -97 172 vhcurveto
            32 293 rmoveto
            115 58 76 166 39 vhcurveto
            70 16 rlineto
            -330 vlineto
            -54 -27 -53 -30 -69 hhcurveto
            -82 -63 59 109 hvcurveto
            return
          </CharString>
          <CharString index="152">
            rmoveto
            -130 -192 -46 -39 -103 -19 rrcurveto
            -49 400 49 vlineto
            -134 21 -4 40 105 175 rrcurveto
            205 340 231 -380 80 -134 -4 -40 -130 -22 rlinecurve
            -49 668 49 vlineto
            -90 27 -45 41 -82 138 rrcurveto
            -322 530 248 365 126 188 46 38 103 19 rlinecurve
            49 -398 -49 vlineto
            134 -21 3 -40 -103 -172 rrcurveto
            -193 -321 -218 358 -82 140 4 34 133 22 rlinecurve
            49 -663 -50 vlineto
            88 -26 41 -42 83 -137 308 -507 rcurveline
            endchar
          </CharString>
          <CharString index="153">
            rmoveto
            -398 276 -172 332 362 206 222 339 3 vhcurveto
            7 867 rlineto
            -6 26 28 -3 28 hhcurveto
            144 92 64 108 99 -78 94 -125 43 hvcurveto
            -48 hlineto
            22 -25 17 -55 -56 vvcurveto
            -123 -91 -101 -181 vhcurveto
            -75 -50 hlineto
            135 -21 19 -27 -134 vvcurveto
            7 -665 rlineto
            -278 2 -146 -168 -229 hhcurveto
            -225 -153 139 312 hvcurveto
            705 vlineto
            92 23 24 132 22 vhcurveto
            49 -652 -49 vlineto
            119 -21 23 -25 -92 vvcurveto
            endchar
          </CharString>
          <CharString index="154">
            rmoveto
            -507 -49 hlineto
            105 -18 29 -40 -4 -100 rrcurveto
            -36 -977 -7 -155 -20 -38 -116 -18 rlinecurve
            -49 379 50 vlineto
            -121 20 -18 35 1 156 rrcurveto
            5 1006 439 -1267 179 0 94 340 321 924 30 -1083 2 -90 -24 -25 -111 -17 rlinecurve
            -49 623 49 vlineto
            -115 18 -20 25 -3 92 rrcurveto
            -33 1076 -2 90 24 27 111 18 rlinecurve
            49 vlineto
            -512 1 -332 -1058 rlineto
            endchar
          </CharString>
          <CharString index="155">
            319 -176 241 -247 109 vhcurveto
            -9 45 49 -6 49 hhcurveto
            168 115 63 121 1 hvcurveto
            102 -81 96 -129 43 vhcurveto
            -49 hlineto
            23 -25 17 -56 -55 vvcurveto
            -127 -1 -89 -97 -162 -94 -91 23 -115 -65 callgsubr
            -105 callsubr
            -99 callsubr
          </CharString>
          <CharString index="156">
            rmoveto
            273 -235 145 -412 vhcurveto
            -632 77 callsubr
            -26 callsubr
            382 142 vlineto
            362 285 149 296 hvcurveto
            -374 -15 rmoveto
            -215 -116 -145 -228 -10 vhcurveto
            -71 -3 0 749 71 -3 rlineto
            237 -10 107 -151 -212 vvcurveto
            endchar
          </CharString>
          <CharString index="157">
            -636 vlineto
            -70 -16 -22 -99 -16 vhcurveto
            -49 130 callsubr
            524 vlineto
            41 44 101 26 99 hhcurveto
            57 58 -9 -11 29 hvcurveto
            12 24 11 42 43 vvcurveto
            90 -43 72 -90 -101 -84 -85 -199 -96 vhcurveto
            return
          </CharString>
          <CharString index="158">
            441 49 0 46 -51 15 rlineto
            -56 20 -7 14 65 vvcurveto
            810 vlineto
            -445 -54 0 -46 52 -16 rlineto
            -79 callsubr
            94 callgsubr
            return
          </CharString>
          <CharString index="159">
            rmoveto
            239 165 239 -165 62 callsubr
          </CharString>
          <CharString index="160">
            rmoveto
            -449 -54 0 -46 52 -16 rlineto
            59 -20 9 -13 -51 callgsubr
            121 78 114 51 vhcurveto
            -184 vlineto
            182 callsubr
            endchar
          </CharString>
          <CharString index="161">
            1282 71 487 71 callsubr
            -59 callgsubr
            return
          </CharString>
          <CharString index="162">
            rmoveto
            -8 -330 rlineto
            47 hlineto
            47 196 63 59 198 13 rrcurveto
            137 6 -506 -77 callgsubr
            98 callgsubr
            endchar
          </CharString>
          <CharString index="163">
            672 49 vlineto
            -101 19 -35 38 -57 160 rrcurveto
            -881 299 rmoveto
            199 610 204 -610 rlineto
            return
          </CharString>
          <CharString index="164">
            186 152 67 110 73 vhcurveto
            -1 49 rlineto
            -51 -50 -84 -37 -98 hhcurveto
            192 callsubr
            return
          </CharString>
          <CharString index="165">
            -17 18 -21 -72 vvcurveto
            -675 vlineto
            43 callsubr
            return
          </CharString>
          <CharString index="166">
            1492 rmoveto
            -120 -87 -65 -77 -38 hvcurveto
            1 -43 rlineto
            26 26 return
          </CharString>
          <CharString index="167">
            -450 339 -293 428 458 303 329 419 return
          </CharString>
          <CharString index="168">
            vlineto
            90 22 24 112 21 vhcurveto
            49 -624 83 callsubr
            return
          </CharString>
          <CharString index="169">
            58 0 -213 338 -168 0 -213 -338 rlineto
            endchar
          </CharString>
          <CharString index="170">
            vlineto
            -4 -19 -1 -19 -22 vvcurveto
            -151 103 -153 212 vhcurveto
            return
          </CharString>
          <CharString index="171">
            1546 rmoveto
            106 78 77 199 -12 hvcurveto
            -56 hlineto
            -88 return
          </CharString>
          <CharString index="172">
            70 56 52 70 69 -56 52 -70 -70 -81 callgsubr
            return
          </CharString>
          <CharString index="173">
            -52 18 24 -30 hvcurveto
            -44 vlineto
            -53 37 82 -38 96 hhcurveto
            endchar
          </CharString>
          <CharString index="174">
            rmoveto
            141 100 69 109 109 -91 65 -119 -91 return
          </CharString>
          <CharString index="175">
            rmoveto
            111 67 63 118 -2 hvcurveto
            -56 hlineto
            -48 -2 -28 return
          </CharString>
          <CharString index="176">
            1529 rmoveto
            240 136 -57 callsubr
            return
          </CharString>
          <CharString index="177">
            11 25 -39 hvcurveto
            -29 19 rlineto
            35 -54 -46 21 -57 hhcurveto
            return
          </CharString>
          <CharString index="178">
            rmoveto
            -322 181 -185 225 153 123 return
          </CharString>
          <CharString index="179">
            1155 rmoveto
            83 68 61 81 82 -68 60 -83 return
          </CharString>
          <CharString index="180">
            1133 rmoveto
            213 103 153 151 22 return
          </CharString>
          <CharString index="181">
            229 -375 181 0 229 375 rlineto
            return
          </CharString>
          <CharString index="182">
            hmoveto
            58 46 37 53 52 -46 -55 callgsubr
            return
          </CharString>
          <CharString index="183">
            rmoveto
            600 -84 0 41 -600 191 rlineto
            return
          </CharString>
          <CharString index="184">
            -49 hlineto
            113 -21 -51 callsubr
            return
          </CharString>
          <CharString index="185">
            vlineto
            240 -15 0 92 -240 -15 rlineto
            return
          </CharString>
          <CharString index="186">
            183 -40 0 -280 -183 rlineto
            return
          </CharString>
          <CharString index="187">
            84 67 61 81 82 -67 60 -84 -83 return
          </CharString>
          <CharString index="188">
            62 0 -229 -13 callgsubr
            return
          </CharString>
          <CharString index="189">
            49 vlineto
            -123 18 -22 33 99 vvcurveto
            return
          </CharString>
          <CharString index="190">
            -49 vlineto
            114 -21 21 -24 -90 vvcurveto
            return
          </CharString>
          <CharString index="191">
            1859 76 callsubr
            return
          </CharString>
          <CharString index="192">
            629 -20 -96 callsubr
            return
          </CharString>
          <CharString index="193">
            359 -20 -98 callsubr
            return
          </CharString>
          <CharString index="194">
            300 82 300 -82 0 43 return
          </CharString>
          <CharString index="195">
            97 158 -7 hvcurveto
            -55 hlineto
            -61 return
          </CharString>
          <CharString index="196">
            12 rlineto
            16 -47 -46 12 -49 hhcurveto
            return
          </CharString>
          <CharString index="197">
            -47 -38 -52 -53 47 -37 58 hvcurveto
            return
          </CharString>
          <CharString index="198">
            -56 -52 -69 -70 56 -52 70 hvcurveto
            return
          </CharString>
          <CharString index="199">
            -67 -60 -82 -81 67 -61 83 hvcurveto
            return
          </CharString>
          <CharString index="200">
            rmoveto
            326 254 167 285 214 -126 152 -261 88 hvcurveto
            -125 43 rlineto
            -169 58 -84 74 125 vvcurveto
            126 92 90 171 185 133 -144 -226 51 vhcurveto
            47 hlineto
            -9 349 rlineto
            50 -75 -146 39 -189 hhcurveto
            -345 -231 -160 -272 -210 136 -146 249 -84 hvcurveto
            126 -42 rlineto
            178 -61 76 -83 -127 vvcurveto
            -141 -107 -96 -163 -204 -182 155 268 -56 vhcurveto
            -47 hlineto
            14 -392 rlineto
            -57 101 175 -42 205 hhcurveto
            return
          </CharString>
          <CharString index="201">
            rmoveto
            -233 353 172 235 85 122 41 30 84 18 rlinecurve
            50 -346 -50 vlineto
            105 -16 11 -27 -69 -117 rrcurveto
            -120 -187 -124 187 -70 115 11 33 108 12 rlinecurve
            50 -574 -50 vlineto
            60 -13 35 -27 61 -94 rrcurveto
            231 -351 -170 -231 -92 -127 -39 -31 -90 -21 rlinecurve
            -49 352 49 vlineto
            -99 16 -16 29 71 119 rrcurveto
            121 189 123 -189 74 -118 -14 -33 -107 -13 rlinecurve
            -49 577 49 vlineto
            -62 15 -35 28 -62 94 rrcurveto
            endchar
          </CharString>
          <CharString index="202">
            rmoveto
            -164 116 -92 184 -60 vhcurveto
            83 -26 rlineto
            115 -38 51 -46 -79 vvcurveto
            -81 -70 -58 -115 -147 -133 117 180 -40 vhcurveto
            -47 hlineto
            10 -284 rlineto
            -45 76 143 -34 144 hhcurveto
            264 200 118 206 167 -102 99 -193 62 hvcurveto
            -83 26 rlineto
            -112 37 -59 40 77 vvcurveto
            79 63 55 116 132 97 -94 -162 38 vhcurveto
            47 hlineto
            -4 263 rlineto
            30 -55 -115 28 -144 hhcurveto
            -284 -176 -120 -201 hvcurveto
            return
          </CharString>
          <CharString index="203">
            rmoveto
            -107 -90 87 callgsubr
            -61 -6 -226 -64 vvcurveto
            -251 142 -152 257 277 212 247 363 269 -89 154 -140 -116 -69 -111 -140 33 vhcurveto
            160 -29 99 -147 -179 vvcurveto
            -180 -93 -101 -132 -134 -75 95 179 vhcurveto
            70 6 204 52 vvcurveto
            190 -77 93 -156 vhcurveto
            endchar
          </CharString>
          <CharString index="204">
            1659 829 -23 rmoveto
            410 337 336 410 410 -337 336 -410 -409 -337 -336 -410 -410 337 -336 409 hvcurveto
            44 vmoveto
            -382 -315 316 386 385 315 317 382 383 315 -316 -386 -385 -316 -317 -382 hvcurveto
            return
          </CharString>
          <CharString index="205">
            1301 rmoveto
            -118 125 -74 168 168 125 74 119 116 -124 77 -169 -169 -124 -77 -117 vhcurveto
            202 hmoveto
            83 36 61 55 55 36 -60 -83 -86 -36 -57 -55 -55 -36 57 85 vhcurveto
            return
          </CharString>
          <CharString index="206">
            rmoveto
            231 -201 124 -298 12 vhcurveto
            230 12 207 103 201 vvcurveto
            229 -236 114 -386 vhcurveto
            -634 -60 callsubr
            -56 callsubr
            184 callsubr
            endchar
          </CharString>
          <CharString index="207">
            rmoveto
            185 122 83 134 -7 hvcurveto
            -57 hlineto
            -52 -6 -100 -34 -137 hhcurveto
            -136 -100 34 52 -7 hvcurveto
            -56 hlineto
            -134 -7 122 -83 184 hhcurveto
            543 -1272 -94 callsubr
          </CharString>
          <CharString index="208">
            rmoveto
            11 -709 rlineto
            -212 3 105 -93 174 hhcurveto
            134 111 68 87 56 hvcurveto
            48 vlineto
            -22 -30 -42 -15 -54 hhcurveto
            -93 -58 54 122 2 hvcurveto
            75 13 420 8 177 vhcurveto
            endchar
          </CharString>
          <CharString index="209">
            424 1445 rmoveto
            -96 hlineto
            -237 -131 0 -31 123 34 rlineto
            -498 vlineto
            -57 -26 -18 -92 -11 vhcurveto
            -34 446 34 vlineto
            -91 11 -27 18 57 vvcurveto
            return
          </CharString>
          <CharString index="210">
            414 686 rmoveto
            197 150 148 237 236 -151 150 -194 -197 -150 -148 -238 -235 151 -150 194 hvcurveto
            return
          </CharString>
          <CharString index="211">
            rmoveto
            184 123 83 134 -7 hvcurveto
            -57 hlineto
            -52 -7 -100 -34 -136 hhcurveto
            -136 -100 34 52 -7 hvcurveto
            -57 hlineto
            -134 -7 123 -83 184 hhcurveto
            endchar
          </CharString>
          <CharString index="212">
            rmoveto
            177 27 161 132 188 vvcurveto
            130 -75 87 -109 -113 -67 -96 -119 vhcurveto
            95 -5 65 -58 -84 vvcurveto
            -83 -63 -56 -87 -17 vhcurveto
            endchar
          </CharString>
          <CharString index="213">
            1567 rmoveto
            190 94 133 133 18 -1 19 -3 15 hvcurveto
            -54 -2 hlineto
            -93 -96 -62 -130 -129 -97 63 92 vhcurveto
            2 -54 vlineto
            return
          </CharString>
          <CharString index="214">
            1818 rmoveto
            -296 -6 hlineto
            338 -283 rlineto
            68 hlineto
            256 289 rmoveto
            -269 -6 hlineto
            231 -283 rlineto
            64 hlineto
            return
          </CharString>
          <CharString index="215">
            -31 7 12 -41 hvcurveto
            -37 11 rlineto
            13 -49 -46 10 -51 hhcurveto
            -111 -68 -62 -118 3 hvcurveto
            56 hlineto
            48 1 28 19 52 hhcurveto
            return
          </CharString>
          <CharString index="216">
            -105 -78 -77 -200 12 hvcurveto
            56 hlineto
            89 3 27 30 45 hhcurveto
            30 24 -12 -25 39 hvcurveto
            29 -19 rlineto
            -35 53 46 -20 57 hhcurveto
            return
          </CharString>
          <CharString index="217">
            1505 161 1265 rmoveto
            -24 callgsubr
            198 callsubr
            return
          </CharString>
          <CharString index="218">
            129 113 65 117 112 -99 67 -118 -13 -14 -1 -2 -12 hvcurveto
            return
          </CharString>
          <CharString index="219">
            -29 hvcurveto
            -43 vlineto
            17 8 29 7 30 -1 rrcurveto
            58 44 -25 -45 -44 -41 -26 return
          </CharString>
          <CharString index="220">
            151 callsubr
            -392 -23 -37 callgsubr
            86 callgsubr
            return
          </CharString>
          <CharString index="221">
            rmoveto
            95 77 78 94 94 -77 77 -95 -94 -77 -77 -94 -94 77 -78 94 hvcurveto
            return
          </CharString>
          <CharString index="222">
            125 callsubr
            58 callsubr
            -93 callsubr
            endchar
          </CharString>
          <CharString index="223">
            350 hmoveto
            61 49 44 61 62 -49 -58 callgsubr
            endchar
          </CharString>
          <CharString index="224">
            1478 rmoveto
            585 -100 0 49 -585 224 rlineto
            return
          </CharString>
          <CharString index="225">
            184 rmoveto
            1076 vlineto
            90 22 24 113 21 vhcurveto
            49 return
          </CharString>
          <CharString index="226">
            -106 -270 -258 -236 -143 281 408 vhcurveto
            return
          </CharString>
          <CharString index="227">
            1864 rmoveto
            -105 -76 -54 -64 -33 hvcurveto
            -37 vlineto
            22 return
          </CharString>
          <CharString index="228">
            1478 rmoveto
            -297 -7 hlineto
            359 -369 rlineto
            return
          </CharString>
          <CharString index="229">
            24 113 21 vhcurveto
            49 -624 -49 vlineto
            113 -21 return
          </CharString>
          <CharString index="230">
            0 292 -36 callsubr
            42 callsubr
            return
          </CharString>
          <CharString index="231">
            -18 hvcurveto
            57 3 hlineto
            104 108 70 146 145 return
          </CharString>
          <CharString index="232">
            vlineto
            70 13 18 87 15 vhcurveto
            50 -544 -50 vlineto
            97 return
          </CharString>
          <CharString index="233">
            1885 rmoveto
            -190 -94 -133 -132 -18 return
          </CharString>
          <CharString index="234">
            -122 -151 -135 vhcurveto
            27 -40 73 44 rlineto
            return
          </CharString>
          <CharString index="235">
            230 -375 180 0 229 375 rlineto
            return
          </CharString>
          <CharString index="236">
            1230 836 hmoveto
            140 callsubr
            return
          </CharString>
          <CharString index="237">
            572 49 vlineto
            -110 18 -18 21 79 vvcurveto
            return
          </CharString>
          <CharString index="238">
            -12 hvcurveto
            -57 hlineto
            -98 -3 -29 -34 -50 hhcurveto
            -32 return
          </CharString>
          <CharString index="239">
            vhcurveto
            -556 -437 rmoveto
            87 callsubr
            return
          </CharString>
          <CharString index="240">
            -106 callsubr
            544 49 vlineto
            -87 return
          </CharString>
          <CharString index="241">
            -81 callsubr
            21 -22 24 90 vvcurveto
            return
          </CharString>
          <CharString index="242">
            rmoveto
            193 143 100 197 18 hvcurveto
            -191 68 190 -106 201 hhcurveto
            182 149 71 100 74 hvcurveto
            49 vlineto
            -47 -51 -83 -35 -95 hhcurveto
            -199 -147 148 263 -26 hvcurveto
            613 hlineto
            3 18 2 26 26 vvcurveto
            246 -164 168 -269 -128 -116 -49 -77 -71 vhcurveto
            84 -56 -124 42 -154 hhcurveto
            -251 -161 -109 -132 -78 61 -57 81 86 64 59 79 66 -47 53 -64 12 hvcurveto
            20 44 52 12 57 hhcurveto
            152 101 -84 -197 hvcurveto
            -79 vlineto
            -197 -34 rlineto
            -309 -51 -118 -114 -155 vvcurveto
            -156 124 -88 172 vhcurveto
            613 633 rmoveto
            215 71 119 114 103 45 -113 -177 -27 0 -22 -1 -18 vhcurveto
            -331 -3 rlineto
            8 -1 9 9 vvcurveto
            -452 -503 rmoveto
            -81 -55 59 108 118 64 78 160 33 hvcurveto
            79 16 rlineto
            -180 vlineto
            -167 -78 -65 -89 vhcurveto
            endchar
          </CharString>
          <CharString index="243">
            rmoveto
            -1019 hlineto
            -555 -1128 -105 -213 -46 -36 -98 -18 rlinecurve
            -49 407 49 vlineto
            -129 21 -23 44 91 198 rrcurveto
            142 307 425 0 5 -442 rlineto
            -86 -22 -23 -105 -19 vhcurveto
            -49 1078 vlineto
            -76 callsubr
            -60 -277 -80 -70 -271 -15 rrcurveto
            -177 -9 -6 653 174 -5 126 -6 31 -53 30 -152 rlinecurve
            43 hlineto
            -3 490 rlineto
            -44 hlineto
            -28 -153 -30 -53 -126 -6 rrcurveto
            -173 -5 -5 620 150 -7 264 -14 81 -72 58 -242 rlinecurve
            47 hlineto
            -992 333 rmoveto
            61 hlineto
            7 -696 rlineto
            -392 hlineto
            endchar
          </CharString>
          <CharString index="244">
            rmoveto
            318 -183 189 -224 -156 -121 -80 -113 -46 vhcurveto
            187 vlineto
            -441 -54 0 -46 51 -16 rlineto
            -67 callsubr
            -1096 vlineto
            -70 -17 -22 -98 -16 vhcurveto
            -49 -23 callgsubr
            398 vlineto
            -73 41 103 -52 119 hhcurveto
            251 214 194 332 hvcurveto
            -339 -30 rmoveto
            -247 -93 -152 -141 -71 -61 38 49 -23 vhcurveto
            616 vlineto
            60 31 55 36 76 hhcurveto
            135 92 -153 -247 hvcurveto
            endchar
          </CharString>
          <CharString index="245">
            rmoveto
            235 -1 -196 153 -418 hhcurveto
            -640 45 callgsubr
            616 49 vlineto
            -105 20 -21 24 84 vvcurveto
            478 155 vlineto
            311 -655 rlineto
            411 47 hlineto
            -55 20 -40 39 -97 194 rrcurveto
            -202 422 171 47 112 120 -1 167 rlinecurve
            -354 -19 rmoveto
            -201 -129 -113 -192 -8 vhcurveto
            -90 -4 0 676 75 -2 rlineto
            233 -11 103 -142 -195 vvcurveto
            return
          </CharString>
          <CharString index="246">
            1461 543 177 rmoveto
            531 vlineto
            103 -1 390 -707 rlineto
            430 47 hlineto
            -63 24 -41 40 -124 222 rrcurveto
            -348 640 186 194 151 151 75 50 118 27 rlinecurve
            49 -433 -49 vlineto
            128 -19 6 -41 -112 -133 rrcurveto
            -364 -432 -102 -1 rlineto
            498 vlineto
            -34 callsubr
            6 callsubr
            -51 callsubr
            -40 callsubr
            return
          </CharString>
          <CharString index="247">
            405 47 hlineto
            -58 19 -43 38 -96 182 rrcurveto
            -233 426 55 50 141 120 66 37 111 25 rlinecurve
            50 -419 -50 vlineto
            120 -22 5 -50 -89 -90 rrcurveto
            -229 -241 -82 -2 0 959 -14 callgsubr
            -52 callsubr
            -93 callsubr
            327 vlineto
            84 -1 rlineto
            return
          </CharString>
          <CharString index="248">
            49 vlineto
            -49 -50 -87 -33 -97 hhcurveto
            -199 -161 157 275 229 120 146 181 54 48 -13 -24 38 hvcurveto
            1 -2 -1 0 -2 hhcurveto
            -77 -63 -64 -81 -81 65 -64 82 80 67 63 88 144 -137 115 -241 -318 -234 -212 -306 return
          </CharString>
          <CharString index="249">
            75 118 49 vhcurveto
            -185 vlineto
            443 49 0 45 -52 17 rlineto
            -57 19 -8 14 65 vvcurveto
            1298 vlineto
            -445 -51 0 -46 52 -17 rlineto
            -79 callsubr
            -395 vlineto
            75 -42 -103 50 -122 hhcurveto
            -251 -210 -190 -336 hvcurveto
            return
          </CharString>
          <CharString index="250">
            15 -13 19 70 vvcurveto
            629 vlineto
            55 30 57 39 81 hhcurveto
            105 60 -66 -133 hvcurveto
            -524 vlineto
            -70 -12 -19 -87 -15 vhcurveto
            -49 528 49 vlineto
            -87 15 -13 19 70 vvcurveto
            183 callsubr
            endchar
          </CharString>
          <CharString index="251">
            -314 239 -199 319 hvcurveto
            7 66 rmoveto
            -134 -83 172 286 276 72 167 136 133 83 -171 -286 -276 -72 -168 -135 hvcurveto
            return
          </CharString>
          <CharString index="252">
            39 -686 rmoveto
            99 hlineto
            861 1444 rlineto
            -99 hlineto
            -896 -712 29 callgsubr
            1031 -745 rmoveto
            -74 callgsubr
            75 callgsubr
            return
          </CharString>
          <CharString index="253">
            vlineto
            -70 -13 -19 -86 -15 vhcurveto
            -49 543 49 vlineto
            -98 17 -17 21 72 vvcurveto
            675 vlineto
            72 17 21 98 17 vhcurveto
            50 -543 -50 vlineto
            86 -15 13 -18 -70 vvcurveto
            return
          </CharString>
          <CharString index="254">
            18 -3 16 hvcurveto
            -53 -3 hlineto
            -93 -100 -63 -136 -135 -101 64 92 vhcurveto
            3 -53 vlineto
            -3 -17 -2 -17 -20 vvcurveto
            -136 96 -137 198 vhcurveto
            endchar
          </CharString>
          <CharString index="255">
            -16 hvcurveto
            54 3 hlineto
            93 97 62 129 129 97 -63 -92 vhcurveto
            -3 54 vlineto
            3 16 1 19 18 vvcurveto
            132 -95 133 -189 vhcurveto
            return
          </CharString>
          <CharString index="256">
            -128 -155 1 -40 rlineto
            5 9 20 4 19 -102 callgsubr
            -49 15 20 -25 hvcurveto
            -1 -47 rlineto
            -56 35 82 -38 98 hhcurveto
            endchar
          </CharString>
          <CharString index="257">
            59 197 13 rrcurveto
            137 6 -505 -77 callgsubr
            -70 -63 -190 -11 rrcurveto
            -163 -6 507 894 rlineto
            45 vlineto
            return
          </CharString>
          <CharString index="258">
            rmoveto
            453 -355 245 -539 vhcurveto
            -591 77 callsubr
            600 vlineto
            486 399 269 477 hvcurveto
            return
          </CharString>
          <CharString index="259">
            -22 -50 hhcurveto
            -30 -31 7 -92 callgsubr
            -107 -68 -73 -139 3 hvcurveto
            55 hlineto
            57 1 28 23 50 hhcurveto
            29 return
          </CharString>
          <CharString index="260">
            56 hlineto
            89 3 28 30 44 hhcurveto
            30 24 -12 -25 39 hvcurveto
            29 -19 rlineto
            -35 54 45 -20 57 hhcurveto
            return
          </CharString>
          <CharString index="261">
            -27 -23 -51 hhcurveto
            -29 -31 8 -92 callgsubr
            -5 callsubr
            -93 callgsubr
            endchar
          </CharString>
          <CharString index="262">
            rlineto
            13 -49 -46 11 -51 hhcurveto
            -111 -68 -63 -118 3 hvcurveto
            56 hlineto
            48 1 28 20 52 hhcurveto
            return
          </CharString>
          <CharString index="263">
            41 -27 -46 -47 -43 -27 -59 -47 -49 15 20 -26 hvcurveto
            -1 -47 rlineto
            -56 35 83 -38 98 hhcurveto
            return
          </CharString>
          <CharString index="264">
            -47 11 -51 hhcurveto
            -110 -68 -63 -118 2 hvcurveto
            57 hlineto
            48 1 28 20 52 hhcurveto
            30 31 return
          </CharString>
          <CharString index="265">
            41 -27 -45 -49 -38 -43 -77 -44 hvcurveto
            51 hlineto
            174 55 66 -83 callgsubr
            return
          </CharString>
          <CharString index="266">
            rmoveto
            129 113 65 117 112 -99 67 -117 -14 -13 -1 -2 -13 hvcurveto
            return
          </CharString>
          <CharString index="267">
            1546 rmoveto
            106 77 77 199 -11 hvcurveto
            -56 hlineto
            -88 -4 -27 -30 -44 hhcurveto
            return
          </CharString>
          <CharString index="268">
            128 114 65 117 112 -99 67 -118 -14 -13 -1 -2 -12 hvcurveto
            return
          </CharString>
          <CharString index="269">
            66 52 48 67 65 -52 49 -66 -66 -52 -49 -65 -67 52 -48 66 hvcurveto
            292 return
          </CharString>
          <CharString index="270">
            -23 -85 vvcurveto
            -1206 -477 1206 vlineto
            85 21 23 105 18 vhcurveto
            50 return
          </CharString>
          <CharString index="271">
            -30 hvcurveto
            -43 vlineto
            18 8 29 7 30 -1 rrcurveto
            58 43 -25 -45 -44 -40 -26 -63 return
          </CharString>
          <CharString index="272">
            -92 -147 vvcurveto
            -144 -82 -89 -134 -8 vhcurveto
            -74 -3 rlineto
            491 vlineto
            endchar
          </CharString>
          <CharString index="273">
            23 51 hhcurveto
            29 31 -8 -14 40 hvcurveto
            36 -12 rlineto
            -16 47 46 -12 49 hhcurveto
            return
          </CharString>
          <CharString index="274">
            1 -40 rlineto
            5 10 20 4 18 -102 callgsubr
            107 callgsubr
          </CharString>
          <CharString index="275">
            78 62 54 73 74 -62 55 -78 -77 -63 -55 -74 -73 63 -54 77 hvcurveto
            return
          </CharString>
          <CharString index="276">
            63 49 41 56 56 -49 41 -63 -63 -49 -41 -56 -56 49 -41 63 hvcurveto
            return
          </CharString>
          <CharString index="277">
            -224 84 -186 138 -129 vhcurveto
            -130 -141 46 -44 132 144 rlineto
            -105 133 173 -58 191 hhcurveto
            458 303 329 419 225 -84 184 -137 130 hvcurveto
            129 140 -45 44 -133 -143 rlineto
            104 -133 -173 58 -191 -65 callgsubr
            146 112 -109 -181 63 vhcurveto
            -648 -703 rlineto
            -24 95 -13 111 122 vvcurveto
            743 -23 rmoveto
            -396 -107 -270 -257 -147 -111 110 181 -63 vhcurveto
            648 702 rlineto
            24 -95 13 -110 -122 vvcurveto
            endchar
          </CharString>
          <CharString index="278">
            rmoveto
            318 240 213 306 152 -56 124 -93 88 hvcurveto
            95 97 -43 43 -98 -101 rlineto
            70 -96 -124 38 -139 hhcurveto
            -318 -240 -211 -307 -153 57 -126 96 -88 hvcurveto
            -90 -92 42 -42 94 95 rlineto
            -68 95 122 -38 138 hhcurveto
            -214 524 rmoveto
            275 74 168 138 92 68 -79 -138 35 vhcurveto
            -395 -402 rlineto
            -8 52 -4 59 65 vvcurveto
            220 -459 rmoveto
            -90 -68 77 135 -35 hvcurveto
            394 401 rlineto
            8 -51 4 -57 -62 vvcurveto
            -275 -75 -168 -138 vhcurveto
            endchar
          </CharString>
          <CharString index="279">
            rmoveto
            -278 149 -163 202 183 113 138 170 47 vhcurveto
            -176 31 108 -132 197 hhcurveto
            244 180 245 330 279 -110 177 -146 -126 -69 -125 -138 53 hvcurveto
            162 -29 115 -148 -188 vvcurveto
            -153 -71 -90 -113 -133 -78 119 274 vhcurveto
            217 -282 -219 vlineto
            -291 -57 -96 -101 -102 -57 110 211 222 63 196 127 95 vhcurveto
            -31 34 rlineto
            -313 -63 -185 -235 -293 vvcurveto
            endchar
          </CharString>
          <CharString index="280">
            rmoveto
            162 97 95 182 93 hvcurveto
            -190 43 75 -82 137 hhcurveto
            98 82 50 71 49 hvcurveto
            46 vlineto
            -12 -15 -22 -8 -25 hhcurveto
            -65 -51 46 234 -63 hvcurveto
            -20 75 231 506 rlineto
            -297 hlineto
            -17 -86 -23 -96 -26 -97 rrcurveto
            191 -69 -111 107 -197 hhcurveto
            -267 -179 -222 -305 -331 178 -174 202 hvcurveto
            -38 539 rmoveto
            266 58 152 100 92 41 -92 -227 38 vhcurveto
            44 -268 rlineto
            -157 -58 -58 -79 -84 hhcurveto
            -108 -65 145 260 hvcurveto
            endchar
          </CharString>
          <CharString index="281">
            rmoveto
            253 172 107 159 81 hvcurveto
            -1 49 -67 -67 -127 -47 -140 -1 rlinecurve
            -148 -2 -96 50 89 vvcurveto
            89 86 51 176 vhcurveto
            75 hlineto
            -46 198 rlineto
            -45 hlineto
            -187 -84 53 91 84 77 60 159 79 69 -12 -24 52 hvcurveto
            -54 -10 -46 -46 -66 vvcurveto
            -66 47 -57 82 69 56 55 73 124 -125 99 -294 -306 -160 -119 -166 -153 133 -91 214 -9 vhcurveto
            -244 -11 -125 -86 -137 vvcurveto
            -162 167 -99 248 vhcurveto
            endchar
          </CharString>
          <CharString index="282">
            rmoveto
            95 73 36 57 21 hvcurveto
            -60 11 67 -30 70 hhcurveto
            52 47 13 16 25 hvcurveto
            33 71 callgsubr
            57 -169 -165 -97 -63 -75 -47 39 -34 52 50 40 37 48 34 -21 28 -30 13 vhcurveto
            5 19 21 4 22 hhcurveto
            85 46 -37 -92 hvcurveto
            -49 vlineto
            -108 -22 rlineto
            -175 -32 -64 -57 -78 vvcurveto
            -75 65 -51 98 vhcurveto
            41 158 rmoveto
            57 30 37 82 18 vhcurveto
            31 7 rlineto
            -159 vlineto
            -25 -12 -26 -14 -34 hhcurveto
            -40 -31 27 52 hvcurveto
            endchar
          </CharString>
          <CharString index="283">
            219 -117 161 -169 70 hvcurveto
            -12 50 57 -8 58 hhcurveto
            157 108 63 110 1 hvcurveto
            99 -79 94 -127 44 vhcurveto
            -49 hlineto
            22 -26 18 -55 -56 vvcurveto
            -120 -92 -90 -166 vhcurveto
            -75 -66 19 -99 hhcurveto
            -316 -237 -216 -304 -314 234 -199 324 hvcurveto
            7 66 rmoveto
            -137 -80 173 285 276 69 167 139 137 79 -172 -286 -276 -68 -167 -139 hvcurveto
            return
          </CharString>
          <CharString index="284">
            rmoveto
            -93 78 -71 100 163 101 121 258 131 vhcurveto
            431 845 74 146 31 27 110 21 rlinecurve
            49 -397 -49 vlineto
            152 -21 14 -25 -69 -148 rrcurveto
            -268 -565 -298 594 -61 123 3 25 142 17 rlinecurve
            49 -662 -49 vlineto
            100 -19 32 -28 63 -117 rrcurveto
            500 -937 -55 -104 -48 -70 -56 -41 rlinecurve
            7 18 4 20 21 vvcurveto
            90 -72 74 -89 -91 -70 -73 -88 vhcurveto
            endchar
          </CharString>
          <CharString index="285">
            rmoveto
            103 84 54 73 30 hvcurveto
            48 vlineto
            -16 -14 -24 -11 -29 hhcurveto
            -76 -65 101 123 30 6 33 10 26 hvcurveto
            297 20 217 207 292 vvcurveto
            -100 callsubr
            -308 230 -197 311 -8 vhcurveto
            -104 -78 -61 -92 -99 vvcurveto
            -114 92 -76 114 vhcurveto
            -17 525 rmoveto
            -134 -83 172 286 276 72 167 136 133 83 -171 -286 -276 -72 -168 -135 hvcurveto
            endchar
          </CharString>
          <CharString index="286">
            rmoveto
            322 -181 184 -224 -153 -123 -73 -117 -49 vhcurveto
            3 674 -445 -53 0 -46 52 -17 rlineto
            56 -19 7 -14 -65 vvcurveto
            -1283 184 vlineto
            118 129 rlineto
            -86 42 109 -62 137 hhcurveto
            255 212 189 337 hvcurveto
            -339 -31 rmoveto
            -255 -95 -144 -140 -71 -60 40 49 -22 vhcurveto
            615 vlineto
            58 30 57 37 76 hhcurveto
            132 93 -144 -256 hvcurveto
            return
          </CharString>
          <CharString index="287">
            -441 325 -289 415 -12 vhcurveto
            -103 -66 -69 -95 -103 vvcurveto
            -115 91 -78 120 105 86 56 83 29 vhcurveto
            -1 48 rlineto
            -18 -15 -27 -14 -34 hhcurveto
            -75 -64 81 108 44 9 40 16 29 hvcurveto
            435 19 285 322 406 vvcurveto
            -104 callsubr
            -102 callsubr
            -101 callsubr
            -105 callsubr
            -107 -270 -257 -236 -143 281 408 vhcurveto
            endchar
          </CharString>
          <CharString index="288">
            340 hlineto
            43 -9 717 -1 vvcurveto
            65 24 58 39 82 hhcurveto
            116 61 -73 -200 -271 -5 -324 -11 -455 hvcurveto
            340 hlineto
            -5 1083 rlineto
            285 -1 -137 105 -204 hhcurveto
            -174 -121 -90 -120 -33 hvcurveto
            129 -13 -74 77 -132 hhcurveto
            -99 -85 -44 -51 -46 hvcurveto
            -48 vlineto
            8 10 19 5 22 hhcurveto
            68 34 -43 -122 -2 hvcurveto
            -86 -13 -424 -10 -204 vhcurveto
            endchar
          </CharString>
          <CharString index="289">
            450 49 0 45 -56 17 rlineto
            -59 19 -8 14 65 vvcurveto
            756 vlineto
            -2 16 18 -2 20 hhcurveto
            110 87 55 104 1 hvcurveto
            98 -84 94 -132 40 vhcurveto
            -49 hlineto
            21 -24 18 -52 -58 vvcurveto
            -131 -95 -86 -260 -25 vhcurveto
            -120 -11 0 -46 53 -16 rlineto
            58 -20 9 -13 -65 vvcurveto
            -583 vlineto
            -54 -30 -59 -38 -78 hhcurveto
            -112 -61 67 135 hvcurveto
            return
          </CharString>
          <CharString index="290">
            558 vlineto
            28 -2 24 -5 24 vhcurveto
            54 31 60 35 81 hhcurveto
            106 62 -66 -133 hvcurveto
            -524 vlineto
            -70 -13 -18 -87 -16 vhcurveto
            -49 544 49 vlineto
            -98 17 -17 21 72 vvcurveto
            537 vlineto
            211 -131 106 -199 -167 -129 -80 -113 -49 vhcurveto
            125 -36 -118 68 -157 hhcurveto
            -170 -122 -80 -112 -48 hvcurveto
            return
          </CharString>
          <CharString index="291">
            634 vlineto
            353 331 131 287 hvcurveto
            -421 662 rmoveto
            -191 -102 -93 -177 -3 vhcurveto
            -128 -1 0 595 76 -3 rlineto
            232 -7 99 -122 -175 vvcurveto
            47 -677 rmoveto
            -211 -135 -124 -243 -8 vhcurveto
            -76 -3 0 678 128 -3 rlineto
            212 -4 114 -136 -189 vvcurveto
            return
          </CharString>
          <CharString index="292">
            1290 -746 rmoveto
            14 428 rlineto
            -46 hlineto
            -66 -282 -96 -66 -320 -14 rrcurveto
            -238 -9 754 1340 rlineto
            47 -1110 vlineto
            -16 -393 rlineto
            46 hlineto
            58 243 84 71 324 14 rrcurveto
            220 8 -753 -1340 rlineto
            -47 vlineto
            -537 723 -37 callgsubr
            86 callgsubr
            endchar
          </CharString>
          <CharString index="293">
            319 686 rmoveto
            164 150 79 155 81 callgsubr
            65 -144 -157 -103 -82 -119 -38 callgsubr
            -41 -61 -27 callgsubr
            1 15 hhcurveto
            106 77 -65 -101 -94 -66 -60 -89 -38 -34 12 19 -26 hvcurveto
            40 37 35 44 46 -38 33 -46 -49 -36 -35 -46 -89 102 -76 152 hvcurveto
            return
          </CharString>
          <CharString index="294">
            242 vlineto
            149 55 59 88 10 10 -1 -1 9 vhcurveto
            -44 -15 -32 -42 -52 vvcurveto
            -68 52 -49 66 64 53 50 67 106 -88 83 -187 -222 -161 -134 -260 vhcurveto
            -121 vlineto
            -116 -47 rlineto
            -43 115 -745 vlineto
            -70 -17 -22 -98 -16 vhcurveto
            -49 -23 callgsubr
            endchar
          </CharString>
          <CharString index="295">
            rmoveto
            312 237 207 313 318 -226 195 -320 -314 -238 -206 -314 -317 227 -196 322 hvcurveto
            5 66 rmoveto
            -133 -73 178 282 276 65 165 134 130 74 -177 -282 -276 -65 -166 -132 hvcurveto
            endchar
          </CharString>
          <CharString index="296">
            417 -1181 233 0 409 1145 70 198 33 36 104 19 rlinecurve
            49 -400 -49 vlineto
            138 -21 18 -43 -58 -185 rrcurveto
            -283 -877 -299 900 -54 164 24 43 127 19 rlinecurve
            49 -672 -49 vlineto
            101 -19 36 -38 56 -160 rrcurveto
            return
          </CharString>
          <CharString index="297">
            rmoveto
            321 vlineto
            89 -1 259 -473 rlineto
            398 47 hlineto
            -59 19 -38 44 -97 184 rrcurveto
            -226 408 55 58 142 138 59 26 102 20 rlinecurve
            50 -391 -50 vlineto
            113 -20 8 -40 -90 -97 rrcurveto
            -237 -253 -87 -2 rlineto
            309 115 callsubr
          </CharString>
          <CharString index="298">
            300 -782 180 0 286 741 62 161 28 28 80 16 rlinecurve
            50 -334 -50 vlineto
            113 -16 13 -32 -47 -149 rrcurveto
            -158 -474 -158 476 -46 147 13 33 116 15 rlinecurve
            50 -601 -50 vlineto
            79 -17 27 -28 47 -119 rrcurveto
            return
          </CharString>
          <CharString index="299">
            -202 -149 147 260 -26 hvcurveto
            623 113 callgsubr
            -312 -207 -214 -304 vhcurveto
            329 116 rmoveto
            215 69 121 121 106 48 -114 -178 -29 0 -21 -1 -19 vhcurveto
            -342 -4 rlineto
            -1 10 0 9 10 vvcurveto
            return
          </CharString>
          <CharString index="300">
            1102 rmoveto
            216 369 rlineto
            7 -270 vlineto
            -7 -376 rlineto
            -206 42 rmoveto
            75 61 54 73 74 -61 55 -75 -75 -61 -55 -74 -73 61 -54 75 hvcurveto
            601 hmoveto
            76 60 54 73 74 -60 55 -76 -75 -61 -55 -74 -73 61 -54 75 hvcurveto
            return
          </CharString>
          <CharString index="301">
            rmoveto
            186 137 112 162 165 -135 104 -186 -186 -137 -112 -162 -165 135 -104 186 hvcurveto
            3 44 rmoveto
            -66 -38 84 147 141 33 82 66 66 38 -84 -146 -141 -33 -83 -66 hvcurveto
            endchar
          </CharString>
          <CharString index="302">
            283 495 102 179 37 35 97 19 rlinecurve
            49 -385 -49 vlineto
            129 -19 13 -41 -87 -172 rrcurveto
            -220 -433 -247 456 -80 151 17 41 119 17 rlinecurve
            49 -654 -49 vlineto
            91 -19 35 -31 87 -151 rrcurveto
            return
          </CharString>
          <CharString index="303">
            1445 1371 418 rmoveto
            231 -201 124 -298 12 vhcurveto
            230 12 207 103 201 vvcurveto
            229 -236 114 -386 vhcurveto
            -634 -60 callsubr
            -56 callsubr
            184 callsubr
            return
          </CharString>
          <CharString index="304">
            1566 rmoveto
            193 126 108 128 72 -50 52 -70 -69 -50 -53 -65 -64 50 -50 61 hvcurveto
            4 3 0 4 hhcurveto
            -42 -47 -71 -27 -84 hhcurveto
            -85 -71 27 42 -47 hvcurveto
            4 4 0 3 hhcurveto
            61 42 callgsubr
            return
          </CharString>
          <CharString index="305">
            368 198 227 342 5 vhcurveto
            10 633 4 159 18 38 111 18 rlinecurve
            50 -372 -50 vlineto
            123 -20 19 -37 4 -161 10 -613 rcurveline
            -292 5 -153 -170 -228 11 callgsubr
            return
          </CharString>
          <CharString index="306">
            -42 -53 -35 hvcurveto
            -39 vlineto
            17 22 43 14 45 hhcurveto
            68 37 237 callsubr
            73 46 88 vvcurveto
            84 -81 54 -103 vhcurveto
            -516 -537 rmoveto
            3 callsubr
            return
          </CharString>
          <CharString index="307">
            -162 -164 259 -193 hhcurveto
            -157 -104 -116 -245 hvcurveto
            91 hlineto
            180 1 70 77 99 163 165 -258 192 hhcurveto
            157 103 116 245 hvcurveto
            -91 hlineto
            -179 -1 -69 -79 -100 hhcurveto
            return
          </CharString>
          <CharString index="308">
            497 vlineto
            175 -5 126 -5 32 -54 29 -152 rlinecurve
            44 490 -44 hlineto
            -31 -154 -30 -52 -126 -6 rrcurveto
            -175 -5 0 634 153 -7 267 -15 85 -70 54 -244 rlinecurve
            47 hlineto
            endchar
          </CharString>
          <CharString index="309">
            -476 rmoveto
            102 91 45 70 38 hvcurveto
            49 vlineto
            -20 -19 -33 -12 -36 hhcurveto
            -56 -48 39 78 87 54 85 131 92 hvcurveto
            -57 -1 rlineto
            -264 -111 -101 -116 -114 vvcurveto
            -108 86 -63 112 vhcurveto
            endchar
          </CharString>
          <CharString index="310">
            162 -445 vlineto
            124 78 rlineto
            214 124 89 81 110 47 callgsubr
            62 25 52 44 74 hhcurveto
            81 50 -50 -75 -88 -51 -76 -136 -130 hvcurveto
            -117 -106 rlineto
            -115 vlineto
            endchar
          </CharString>
          <CharString index="311">
            -65 -282 -97 -66 -320 -14 rrcurveto
            -237 -9 754 1340 rlineto
            47 -1111 vlineto
            -15 -393 rlineto
            46 hlineto
            58 243 83 71 324 14 rrcurveto
            221 8 -753 -1340 rlineto
            -47 vlineto
            return
          </CharString>
          <CharString index="312">
            hmoveto
            58 46 38 52 53 -46 234 callsubr
            -434 -212 rmoveto
            556 116 -556 hlineto
            return
          </CharString>
          <CharString index="313">
            420 1465 rmoveto
            -177 -27 -161 -132 -188 vvcurveto
            -130 75 -88 108 114 67 97 119 vhcurveto
            -95 4 -65 59 84 vvcurveto
            83 63 55 87 18 vhcurveto
            return
          </CharString>
          <CharString index="314">
            -1444 rmoveto
            192 155 111 131 -111 460 -168 hlineto
            -364 -493 rlineto
            -98 340 vlineto
            131 vmoveto
            -239 hlineto
            239 354 rlineto
            endchar
          </CharString>
          <CharString index="315">
            274 1476 rmoveto
            -89 -64 -58 -90 -1 hvcurveto
            -60 17 -47 37 -119 vhcurveto
            83 -270 35 0 83 270 36 117 18 49 -1 60 rlinecurve
            90 -64 58 -90 vhcurveto
            return
          </CharString>
          <CharString index="316">
            -370 rlineto
            47 hlineto
            48 233 83 59 225 18 37 2 rcurveline
            -1187 vlineto
            -99 -23 -33 -123 -18 vhcurveto
            -49 637 49 vlineto
            -115 20 -21 26 94 vvcurveto
            return
          </CharString>
          <CharString index="317">
            72 18 22 97 16 vhcurveto
            50 -539 -50 vlineto
            84 56 callgsubr
            return
          </CharString>
          <CharString index="318">
            90 callgsubr
            -124 71 -169 -169 -124 -71 -109 vhcurveto
            202 hmoveto
            76 36 55 55 55 36 -54 -77 -79 -36 -51 -55 -55 -36 52 78 vhcurveto
            endchar
          </CharString>
          <CharString index="319">
            39 -70 -146 37 -156 -5 -5 0 -5 hhcurveto
            200 -43 -202 vlineto
            -277 -18 -180 -145 -240 vvcurveto
            -188 109 -135 227 -89 vhcurveto
            return
          </CharString>
          <CharString index="320">
            rlineto
            -17 hlineto
            17 hlineto
            155 78 callgsubr
            -64 10 -12 14 -1 47 rrcurveto
            -16 535 -1 47 14 14 62 10 rlinecurve
            34 -320 vlineto
            -159 -502 rlineto
            return
          </CharString>
          <CharString index="321">
            149 67 58 -19 -32 45 vhcurveto
            -2 hlineto
            -75 -61 -61 -79 -79 63 -63 81 79 66 63 81 164 -172 105 -238 -264 -234 -130 -274 return
          </CharString>
          <CharString index="322">
            1454 rmoveto
            584 -99 0 49 -584 224 rlineto
            -1 -482 -48 callsubr
            return
          </CharString>
          <CharString index="323">
            968 71 994 rmoveto
            -8 -330 rlineto
            47 hlineto
            47 196 63 59 198 13 rrcurveto
            137 6 -506 -77 callgsubr
            98 callgsubr
            return
          </CharString>
          <CharString index="324">
            192 155 111 131 -112 460 -167 hlineto
            -365 -493 rlineto
            -98 341 vlineto
            131 vmoveto
            -239 hlineto
            239 354 rlineto
            endchar
          </CharString>
          <CharString index="325">
            1529 rmoveto
            62 hlineto
            -107 289 rlineto
            -343 -6 hlineto
            return
          </CharString>
          <CharString index="326">
            1478 rmoveto
            584 -100 0 49 -584 224 rlineto
            return
          </CharString>
          <CharString index="327">
            1436 181 1178 rmoveto
            189 callsubr
            return
          </CharString>
          <CharString index="328">
            1281 1157 1444 rmoveto
            -1113 -47 hlineto
            return
          </CharString>
          <CharString index="329">
            1226 579 13 rmoveto
            3 3 0 3 hhcurveto
            -202 return
          </CharString>
          <CharString index="330">
            1127 rmoveto
            196 124 113 130 78 -52 52 return
          </CharString>
          <CharString index="331">
            1102 rmoveto
            63 hlineto
            -126 376 rlineto
            -343 -7 hlineto
            return
          </CharString>
          <CharString index="332">
            1090 rmoveto
            231 414 -236 0 -45 -414 rlineto
            return
          </CharString>
          <CharString index="333">
            284 rlineto
            6 vlineto
            96 -1 rmoveto
            -111 -289 69 0 return
          </CharString>
          <CharString index="334">
            127 -267 -302 -204 -166 -246 -172 return
          </CharString>
          <CharString index="335">
            126 -119 -208 43 hvcurveto
            46 hlineto
            -12 316 rlineto
            return
          </CharString>
          <CharString index="336">
            126 -119 -208 43 vhcurveto
            46 hlineto
            -12 316 rlineto
            return
          </CharString>
          <CharString index="337">
            100 -228 4 vhcurveto
            206 -43 -206 vlineto
            -301 -12 return
          </CharString>
          <CharString index="338">
            50 vlineto
            -24 -26 -42 -16 -45 hhcurveto
            -83 -56 50 133 hvcurveto
            return
          </CharString>
          <CharString index="339">
            46 88 vvcurveto
            84 -81 54 -102 vhcurveto
            9 -532 rmoveto
            180 return
          </CharString>
          <CharString index="340">
            38 -70 -145 38 -157 -5 -5 0 -5 hhcurveto
            200 return
          </CharString>
          <CharString index="341">
            37 -58 hvcurveto
            -10 hlineto
            -59 -46 -37 -53 -52 46 -38 59 hvcurveto
            return
          </CharString>
          <CharString index="342">
            32 -8 -14 40 hvcurveto
            36 -12 rlineto
            -16 46 47 -12 49 hhcurveto
            return
          </CharString>
          <CharString index="343">
            31 -8 -13 40 hvcurveto
            36 -12 rlineto
            -16 47 46 -12 49 hhcurveto
            return
          </CharString>
          <CharString index="344">
            -30 -42 -43 -35 -31 -71 -18 hvcurveto
            43 -30 rlineto
            144 25 return
          </CharString>
          <CharString index="345">
            -10 callgsubr
            66 61 76 vvcurveto
            79 -72 54 -106 vhcurveto
            return
          </CharString>
          <CharString index="346">
            -47 hlineto
            14 -333 rlineto
            -58 98 163 -37 175 hhcurveto
            return
          </CharString>
          <CharString index="347">
            -47 hlineto
            13 -333 rlineto
            -58 99 163 -37 174 hhcurveto
            return
          </CharString>
          <CharString index="348">
            -50 vlineto
            116 -13 32 -37 -1 -93 rrcurveto
            -4 -122 -4 return
          </CharString>
          <CharString index="349">
            -50 vlineto
            104 -18 22 163 callsubr
            -607 -50 vlineto
            return
          </CharString>
          <CharString index="350">
            -62 0 229 -375 180 0 230 375 rlineto
            return
          </CharString>
          <CharString index="351">
            -62 0 209 -289 184 0 210 289 rlineto
            return
          </CharString>
          <CharString index="352">
            hvcurveto
            -32 vlineto
            14 22 43 12 44 hhcurveto
            66 36 -26 -35 -37 return
          </CharString>
          <CharString index="353">
            rmoveto
            164 150 80 154 81 callgsubr
            66 return
          </CharString>
        <CharString name=".notdef">
          2048 146 -494 rmoveto
          117 2444 -117 hlineto
          410 -2444 rmoveto
          117 2444 -117 hlineto
          409 -35 callgsubr
          410 -35 callgsubr
          410 -35 callgsubr
          endchar
        </CharString>
        <CharString name=".null">
          0 endchar
        </CharString>
        <CharString name="A">
          1441 1259 266 -94 callsubr
        </CharString>
        <CharString name="AE">
          1920 1806 1444 136 callsubr
        </CharString>
        <CharString name="AEacute">
          1920 1149 -92 callsubr
          -91 callsubr
          719 -86 136 callsubr
        </CharString>
        <CharString name="AEmacron">
          1920 927 -42 callsubr
          879 -286 136 callsubr
        </CharString>
        <CharString name="Aacute">
          1441 656 -92 callsubr
          -91 callsubr
          665 -1264 -94 callsubr
        </CharString>
        <CharString name="Abreve">
          1441 716 106 callsubr
          -3 -15 -1 -18 callgsubr
          543 -1301 -94 callsubr
        </CharString>
        <CharString name="Abreveacute">
          1441 1016 23 callsubr
          -41 vlineto
          300 -237 100 callsubr
        </CharString>
        <CharString name="Abrevecyrillic">
          1441 716 1566 rmoveto
          194 126 108 128 72 -51 52 -70 -68 -51 -53 -65 -64 50 -50 62 hvcurveto
          3 36 callgsubr
          61 50 50 64 65 -51 53 -68 -70 -50 -52 -72 -128 126 -108 193 hvcurveto
          543 -1300 -94 callsubr
        </CharString>
        <CharString name="Abrevedotbelow">
          1441 716 106 callsubr
          -3 -15 -1 -18 callgsubr
          543 -1301 rmoveto
          -13 callsubr
          56 callsubr
          -138 -719 -28 callsubr
        </CharString>
        <CharString name="Abrevegrave">
          1441 417 84 callsubr
          299 -469 100 callsubr
        </CharString>
        <CharString name="Abrevehookabove">
          1441 707 1993 rmoveto
          -89 -65 -37 -44 -38 hvcurveto
          -33 vlineto
          14 24 44 12 46 hhcurveto
          68 39 -26 -36 -36 -35 -28 -74 -14 hvcurveto
          44 -26 rlineto
          148 22 75 39 74 vvcurveto
          72 -82 47 -105 vhcurveto
          9 -455 100 callsubr
        </CharString>
        <CharString name="Abrevetilde">
          1441 840 1807 rmoveto
          111 67 63 118 -1 hvcurveto
          -57 hlineto
          -48 -2 -28 -19 -51 hhcurveto
          -30 -31 7 11 -42 hvcurveto
          -36 11 rlineto
          13 -49 157 callsubr
          -7 -31 callgsubr
          -124 -269 100 callsubr
        </CharString>
        <CharString name="Acaron">
          1441 971 25 callsubr
          -3 callsubr
          228 -1571 -94 callsubr
        </CharString>
        <CharString name="Acircumflex">
          1441 490 -58 callsubr
          -57 callsubr
          -23 callsubr
          829 -1263 -94 callsubr
        </CharString>
        <CharString name="Acircumflexacute">
          1441 1016 -85 callgsubr
          1 -254 rmoveto
          87 callsubr
          -281 79 callsubr
          843 -1277 -94 callsubr
        </CharString>
        <CharString name="Acircumflexdotbelow">
          1441 490 -58 callsubr
          -57 callsubr
          -23 callsubr
          829 -1263 rmoveto
          -13 callsubr
          56 callsubr
          -138 -719 -28 callsubr
        </CharString>
        <CharString name="Acircumflexgrave">
          1441 417 1838 76 callsubr
          -486 vmoveto
          87 callsubr
          -281 79 callsubr
          843 -1277 -94 callsubr
        </CharString>
        <CharString name="Acircumflexhookabove">
          1441 973 1937 rmoveto
          -85 -62 -36 -45 -36 245 callsubr
          -33 -27 -71 105 callgsubr
          -100 132 callsubr
          -281 79 callsubr
          843 -1277 -94 callsubr
        </CharString>
        <CharString name="Acircumflextilde">
          1441 840 1787 rmoveto
          111 67 62 119 -1 hvcurveto
          -57 hlineto
          -48 -2 -28 -20 -51 hhcurveto
          -30 -31 7 12 -42 hvcurveto
          -36 10 rlineto
          13 -49 157 callsubr
          -39 callgsubr
          -423 -287 rmoveto
          87 callsubr
          -281 79 callsubr
          843 -1277 -94 callsubr
        </CharString>
        <CharString name="Acyrillic">
          1441 1259 266 -94 callsubr
        </CharString>
        <CharString name="Adblgrave">
          1441 551 107 callsubr
          316 -1263 -94 callsubr
        </CharString>
        <CharString name="Adieresis">
          1441 547 1553 rmoveto
          71 56 52 70 69 -56 52 -71 -70 91 callsubr
          37 callsubr
          373 -1287 -94 callsubr
        </CharString>
        <CharString name="Adieresismacron">
          1441 416 1833 rmoveto
          601 115 -601 hlineto
          144 -392 rmoveto
          -32 callgsubr
          90 callsubr
          332 hmoveto
          58 47 37 53 52 -47 38 -58 hvcurveto
          -10 hlineto
          -58 90 callsubr
          387 -1290 -94 callsubr
        </CharString>
        <CharString name="Adotaccent">
          1441 716 -53 callsubr
          543 -1280 -94 callsubr
        </CharString>
        <CharString name="Adotbelow">
          1441 1259 266 rmoveto
          -13 callsubr
          56 callsubr
          -138 -719 -28 callsubr
        </CharString>
        <CharString name="Adotmacron">
          1441 416 1808 rmoveto
          601 116 -601 hlineto
          300 40 callgsubr
          543 -1283 -94 callsubr
        </CharString>
        <CharString name="Agrave">
          1441 806 -29 callsubr
          841 -1546 -94 callsubr
        </CharString>
        <CharString name="Ahookabove">
          1441 752 1864 rmoveto
          -105 -76 -54 -64 -30 callgsubr
          158 callsubr
          507 -1598 -94 callsubr
        </CharString>
        <CharString name="Ainvertedbreve">
          1441 716 126 callsubr
          1 -19 3 148 callsubr
          543 -1619 -94 callsubr
        </CharString>
        <CharString name="Alphagreek">
          1441 1259 266 -94 callsubr
        </CharString>
        <CharString name="Alphatonosgreek">
          1441 1259 266 rmoveto
          -13 callsubr
          672 49 vlineto
          -101 19 -35 38 -57 160 rrcurveto
          -1052 802 rmoveto
          252 369 rlineto
          7 -283 vlineto
          -34 -376 rlineto
          236 -503 rmoveto
          199 610 204 -610 rlineto
          endchar
        </CharString>
        <CharString name="Amacron">
          1441 434 -42 callsubr
          825 -1464 -94 callsubr
        </CharString>
        <CharString name="Aogonek">
          1441 1124 7 callgsubr
          296 49 hlineto
          -101 19 -35 38 -57 160 rrcurveto
          -13 callsubr
          317 100 callgsubr
          -746 1044 rmoveto
          199 610 204 -610 rlineto
          endchar
        </CharString>
        <CharString name="Aring">
          1441 452 1722 rmoveto
          -106 113 110 callgsubr
          -151 -113 -70 -106 vhcurveto
          182 hmoveto
          75 33 53 49 49 33 -53 -75 -76 -33 -51 -49 -49 -33 51 76 vhcurveto
          625 -1456 -94 callsubr
        </CharString>
        <CharString name="Aringacute">
          1441 1016 1842 -17 callgsubr
          8 callgsubr
          42 36 rmoveto
          -28 hlineto
          -44 -25 24 38 37 26 25 43 hvcurveto
          28 hlineto
          44 25 -25 -37 -38 -26 -24 -43 hvcurveto
          529 -1302 -94 callsubr
        </CharString>
        <CharString name="Aringbelow">
          1441 1259 266 rmoveto
          -13 callsubr
          56 callsubr
          -431 -848 90 callgsubr
          -125 71 -168 -169 -124 -71 -109 vhcurveto
          202 hmoveto
          76 36 55 55 55 35 -54 -77 -79 -35 -51 -55 -55 -36 52 78 vhcurveto
          endchar
        </CharString>
        <CharString name="Atilde">
          1441 835 160 callsubr
          -30 -24 70 callsubr
          109 callsubr
          424 -1280 -94 callsubr
        </CharString>
        <CharString name="B">
          1445 1371 418 99 callsubr
        </CharString>
        <CharString name="Bdotaccent">
          1445 707 -53 callsubr
          664 -1128 99 callsubr
        </CharString>
        <CharString name="Bdotbelow">
          196 callsubr
          -289 -557 -28 callsubr
        </CharString>
        <CharString name="Becyrillic">
          1391 1331 416 rmoveto
          261 -238 149 -384 vhcurveto
          -167 560 hlineto
          186 -5 284 -9 82 -53 57 -240 rlinecurve
          47 hlineto
          -14 365 rlineto
          -1131 -49 hlineto
          113 -91 callgsubr
          -21 -24 -113 -21 vhcurveto
          -49 658 vlineto
          388 232 154 262 hvcurveto
          -375 -2 rmoveto
          -209 -104 -134 -220 -10 vhcurveto
          -90 -3 0 708 90 -3 rlineto
          213 -9 111 -133 -207 vvcurveto
          endchar
        </CharString>
        <CharString name="Betagreek">
          1445 1371 418 99 callsubr
        </CharString>
        <CharString name="Blinebelow">
          196 callsubr
          -581 -760 -72 callsubr
        </CharString>
        <CharString name="C">
          1426 83 726 -11 callsubr
          -30 callsubr
        </CharString>
        <CharString name="Cacute">
          1426 817 -92 callsubr
          -91 callsubr
          -672 -804 -11 callsubr
          -30 callsubr
        </CharString>
        <CharString name="Ccaron">
          1426 1132 -34 callgsubr
          -63 0 -3 callsubr
          -1109 -1111 -11 callsubr
          -30 callsubr
        </CharString>
        <CharString name="Ccedilla">
          1426 83 726 rmoveto
          -454 326 -276 435 -18 vhcurveto
          -126 -152 21 callgsubr
          83 -38 97 hhcurveto
          -43 callgsubr
          -14 -13 -1 -2 -12 hvcurveto
          64 77 rlineto
          190 3 166 44 74 52 11 394 rcurveline
          -29 callgsubr
          -30 callsubr
        </CharString>
        <CharString name="Ccedillaacute">
          1426 817 -92 callsubr
          -91 callsubr
          -672 -804 rmoveto
          -454 326 -276 435 -18 vhcurveto
          -126 -152 21 callgsubr
          83 -38 97 hhcurveto
          -43 callgsubr
          -14 -13 -1 -2 -12 hvcurveto
          64 77 rlineto
          190 3 166 44 74 52 11 394 rcurveline
          -29 callgsubr
          -30 callsubr
        </CharString>
        <CharString name="Ccircumflex">
          1426 651 -58 callsubr
          -57 callsubr
          -23 callsubr
          -508 -803 -11 callsubr
          -30 callsubr
        </CharString>
        <CharString name="Cdotaccent">
          1426 877 1546 rmoveto
          76 61 55 73 74 -61 54 -76 -88 callgsubr
          -794 -820 -11 callsubr
          -30 callsubr
        </CharString>
        <CharString name="Checyrillic">
          1599 1411 184 rmoveto
          1076 vlineto
          90 23 24 112 21 vhcurveto
          49 -615 -49 vlineto
          105 -19 20 -23 -86 vvcurveto
          -561 vlineto
          -31 -66 -82 -17 -95 hhcurveto
          -196 -98 108 230 hvcurveto
          271 vlineto
          86 21 23 105 19 vhcurveto
          49 -607 -49 vlineto
          106 -19 20 -23 -86 vvcurveto
          -251 vlineto
          -306 210 -144 309 156 132 31 46 85 vhcurveto
          -449 vlineto
          -96 -22 -30 -126 -19 vhcurveto
          -49 638 49 vlineto
          -112 21 -23 24 90 vvcurveto
          endchar
        </CharString>
        <CharString name="Chigreek">
          1418 280 299 45 callsubr
        </CharString>
        <CharString name="D">
          1612 31 callsubr
          endchar
        </CharString>
        <CharString name="Dbar">
          1612 53 710 rmoveto
          135 -526 hlineto
          -78 callgsubr
          600 vlineto
          486 399 269 477 453 -355 245 -539 hvcurveto
          -591 -60 callsubr
          -490 -135 vlineto
          1093 -47 -37 callgsubr
          rlineto
          653 267 60 -267 617 vlineto
          67 -2 344 -11 193 -266 -1 -385 rlinecurve
          endchar
        </CharString>
        <CharString name="Dcaron">
          1612 1025 -34 callgsubr
          244 callsubr
          452 -1091 113 callsubr
          endchar
        </CharString>
        <CharString name="Dcircumflexbelow">
          1612 31 callsubr
          -665 -1174 -1 callsubr
          62 callsubr
        </CharString>
        <CharString name="Dcommaaccent">
          1612 31 callsubr
          -435 -1181 22 callsubr
          164 callsubr
          -52 -52 -40 callgsubr
        </CharString>
        <CharString name="Ddotaccent">
          1612 771 -18 callsubr
          -37 callsubr
          767 -800 113 callsubr
          endchar
        </CharString>
        <CharString name="Ddotbelow">
          1612 31 callsubr
          -426 -877 -77 callsubr
          -22 callsubr
        </CharString>
        <CharString name="Decyrillic">
          1479 1442 63 rmoveto
          -178 1182 hlineto
          99 23 33 123 18 vhcurveto
          49 -1218 -49 vlineto
          139 -19 47 -43 -3 -146 rrcurveto
          -6 -143 -10 -439 -49 -340 -145 -202 rlinecurve
          -144 hlineto
          -9 -423 rlineto
          50 hlineto
          287 67 84 73 272 hhcurveto
          491 hlineto
          280 77 -79 -281 67 hvcurveto
          51 hlineto
          -542 423 rmoveto
          -656 hlineto
          133 205 48 325 10 451 8 337 rcurveline
          457 hlineto
          endchar
        </CharString>
        <CharString name="Deltagreek">
          1339 40 hmoveto
          1258 181 hlineto
          -512 1267 -233 0 -513 -1267 rlineto
          94 39 rmoveto
          402 973 372 -973 rlineto
          endchar
        </CharString>
        <CharString name="Djecyrillic">
          1762 -43 callsubr
          209 callsubr
          497 vlineto
          31 50 72 19 79 hhcurveto
          185 114 -142 -275 1 hvcurveto
          1 -282 -98 -246 -201 -126 24 -42 rcurveline
          368 127 261 248 339 vvcurveto
          321 -219 173 -293 -155 -121 -36 -45 -68 vhcurveto
          636 112 callgsubr
        </CharString>
        <CharString name="Dlinebelow">
          1612 31 callsubr
          -717 -1080 -87 callgsubr
        </CharString>
        <CharString name="Dzecyrillic">
          1250 590 -23 93 callsubr
          endchar
        </CharString>
        <CharString name="Dzhecyrillic">
          1649 1461 1260 rmoveto
          -106 callgsubr
          -49 vlineto
          105 -19 21 -23 -86 vvcurveto
          -1205 -563 1205 vlineto
          86 21 23 105 19 vhcurveto
          49 6 callsubr
          22 -24 -90 vvcurveto
          2 callsubr
          550 vlineto
          124 25 -41 -290 48 hvcurveto
          50 hlineto
          290 48 25 41 123 hhcurveto
          550 49 hlineto
          -113 -89 callsubr
        </CharString>
        <CharString name="E">
          1282 1167 1444 -88 callsubr
        </CharString>
        <CharString name="Eacute">
          1282 622 -46 callgsubr
          608 -86 -88 callsubr
        </CharString>
        <CharString name="Ebreve">
          1282 682 -101 callgsubr
          0 callgsubr
          485 -123 -88 callsubr
        </CharString>
        <CharString name="Ecaron">
          1282 937 1 callsubr
          -25 callsubr
          -49 callsubr
          170 -393 -88 callsubr
        </CharString>
        <CharString name="Ecedilla">
          1282 644 -458 159 callsubr
          77 92 rlineto
          8 507 vlineto
          -76 callsubr
          -31 callsubr
          -2 callsubr
          -14 393 rlineto
          5 callsubr
          597 vlineto
          -144 -174 167 callsubr
        </CharString>
        <CharString name="Ecedillabreve">
          1282 682 -101 callgsubr
          0 callgsubr
          -38 -2025 159 callsubr
          77 92 rlineto
          8 507 vlineto
          -76 callsubr
          -31 callsubr
          -2 callsubr
          -14 393 rlineto
          5 callsubr
          597 vlineto
          -144 -174 167 callsubr
        </CharString>
        <CharString name="Ecircumflex">
          1282 456 69 callsubr
          32 callsubr
          772 -85 -88 callsubr
        </CharString>
        <CharString name="Ecircumflexacute">
          1282 982 -85 callgsubr
          -254 vmoveto
          -45 callsubr
          785 -99 -88 callsubr
        </CharString>
        <CharString name="Ecircumflexbelow">
          1282 1167 1444 rmoveto
          5 callsubr
          1161 vlineto
          -76 callsubr
          -31 callsubr
          -2 callsubr
          -751 -1502 -1 callsubr
          62 callsubr
        </CharString>
        <CharString name="Ecircumflexdotbelow">
          1282 456 69 callsubr
          32 callsubr
          772 -85 rmoveto
          5 callsubr
          1161 vlineto
          -76 callsubr
          -31 callsubr
          -2 callsubr
          -512 -1205 -77 callsubr
          -22 callsubr
        </CharString>
        <CharString name="Ecircumflexgrave">
          1282 382 1838 76 callsubr
          -486 vmoveto
          -45 callsubr
          785 -99 -88 callsubr
        </CharString>
        <CharString name="Ecircumflexhookabove">
          1282 938 59 callgsubr
          65 37 57 callgsubr
          -80 45 -100 132 callsubr
          -280 79 callsubr
          785 -99 -88 callsubr
        </CharString>
        <CharString name="Ecircumflextilde">
          1282 806 1787 rmoveto
          110 68 62 119 -2 hvcurveto
          -57 hlineto
          -48 -1 -28 -20 -51 hhcurveto
          -31 -31 7 12 -41 hvcurveto
          -37 10 155 callsubr
          30 31 -6 -13 42 hvcurveto
          37 -10 rlineto
          -14 48 47 -10 51 hhcurveto
          -424 -287 rmoveto
          -45 callsubr
          785 -99 -88 callsubr
        </CharString>
        <CharString name="Ecyrillic">
          1440 83 726 -11 callsubr
          -269 -152 307 353 -8 hvcurveto
          604 -14 0 92 -604 -15 rlineto
          380 9 160 251 257 hhcurveto
          -2 callgsubr
        </CharString>
        <CharString name="Edblgrave">
          1282 516 1818 -7 callgsubr
          69 hlineto
          256 -60 callgsubr
          259 -85 -88 callsubr
        </CharString>
        <CharString name="Edieresis">
          1282 513 -100 callgsubr
          -81 callgsubr
          -4 callsubr
          316 -109 -88 callsubr
        </CharString>
        <CharString name="Edotaccent">
          1282 682 -18 callsubr
          -37 callsubr
          485 -102 -88 callsubr
        </CharString>
        <CharString name="Edotbelow">
          1282 1167 1444 rmoveto
          5 callsubr
          1161 vlineto
          -76 callsubr
          -31 callsubr
          -2 callsubr
          -512 -1205 -77 callsubr
          -22 callsubr
        </CharString>
        <CharString name="Efcyrillic">
          2002 64 720 rmoveto
          -295 264 -193 508 -11 vhcurveto
          -45 vlineto
          -99 -23 -32 -123 -19 vhcurveto
          -49 623 49 vlineto
          -124 19 -22 32 99 vvcurveto
          45 vlineto
          520 11 251 188 301 vvcurveto
          293 -251 197 -520 11 vhcurveto
          46 vlineto
          99 22 32 124 19 vhcurveto
          49 -623 -49 vlineto
          123 -19 23 -32 -99 vvcurveto
          -46 vlineto
          -534 -10 -238 -193 -299 vvcurveto
          375 4 rmoveto
          226 114 193 283 18 vhcurveto
          -879 vlineto
          -278 19 -119 192 231 vvcurveto
          1125 -3 rmoveto
          -227 -119 -192 -278 -20 vhcurveto
          879 vlineto
          282 -19 115 -192 -229 vvcurveto
          endchar
        </CharString>
        <CharString name="Egrave">
          1282 771 -29 callsubr
          784 -368 -88 callsubr
        </CharString>
        <CharString name="Ehookabove">
          1282 717 120 callsubr
          25 42 16 47 hhcurveto
          62 40 -27 -45 -49 238 callsubr
          450 -420 -88 callsubr
        </CharString>
        <CharString name="Einvertedbreve">
          1282 681 1885 rmoveto
          -189 -94 -133 -132 -18 1 -19 16 callgsubr
          486 -441 -88 callsubr
        </CharString>
        <CharString name="Elcyrillic">
          1504 35 callgsubr
          448 -1197 hlineto
          -90 -22 -25 -112 -20 vhcurveto
          -49 -81 callsubr
          20 -23 25 90 vvcurveto
          1076 vlineto
          91 23 24 112 20 vhcurveto
          49 -1198 -4 callgsubr
          endchar
        </CharString>
        <CharString name="Emacron">
          1282 400 -26 callgsubr
          767 -286 -88 callsubr
        </CharString>
        <CharString name="Emacronacute">
          1282 982 23 callsubr
          -8 callgsubr
          786 -260 -88 callsubr
        </CharString>
        <CharString name="Emacrongrave">
          1282 382 84 callsubr
          -1 -419 40 callsubr
          786 -260 -88 callsubr
        </CharString>
        <CharString name="Emcyrillic">
          1848 574 1444 47 callsubr
        </CharString>
        <CharString name="Encyrillic">
          10 callsubr
          -68 callsubr
          -63 callsubr
          -54 callsubr
          -47 callsubr
        </CharString>
        <CharString name="Eogonek">
          1282 1009 7 callgsubr
          173 hlineto
          -76 callsubr
          -31 callsubr
          -32 -53 -128 27 callgsubr
          -14 393 rlineto
          -1114 -60 callsubr
          2 callsubr
          929 100 callgsubr
          endchar
        </CharString>
        <CharString name="Epsilongreek">
          1282 1167 1444 -88 callsubr
        </CharString>
        <CharString name="Epsilontonosgreek">
          1618 1503 1444 rmoveto
          -1113 -49 hlineto
          113 -91 callgsubr
          -21 -24 -113 -21 vhcurveto
          -49 1160 vlineto
          15 428 rlineto
          -47 hlineto
          -62 -277 -88 -72 -285 -13 rrcurveto
          -204 -9 0 653 202 -5 128 -6 33 -53 29 -152 rlinecurve
          44 490 -44 hlineto
          -31 -153 -31 -53 -128 -6 rrcurveto
          -202 -5 0 620 173 -7 274 -14 87 -72 57 -243 rlinecurve
          47 hlineto
          -1445 17 -50 callgsubr
          endchar
        </CharString>
        <CharString name="Ercyrillic">
          1406 1332 1026 49 callsubr
        </CharString>
        <CharString name="Ereversedcyrillic">
          1447 111 80 rmoveto
          -58 84 182 -45 177 hhcurveto
          477 332 296 462 441 -330 291 -475 -206 -156 -43 -56 -79 hvcurveto
          -12 -325 rlineto
          47 hlineto
          223 52 133 133 203 hhcurveto
          258 165 -247 -384 8 hvcurveto
          -601 15 0 -92 601 13 rlineto
          -364 -8 -154 -295 -274 hhcurveto
          -181 -152 107 252 -57 hvcurveto
          -47 hlineto
          endchar
        </CharString>
        <CharString name="Escyrillic">
          1426 83 726 -11 callsubr
          -30 callsubr
        </CharString>
        <CharString name="Etagreek">
          10 callsubr
          -68 callsubr
          -63 callsubr
          -54 callsubr
          -47 callsubr
        </CharString>
        <CharString name="Etatonosgreek">
          1996 879 177 rmoveto
          530 575 -530 -62 callgsubr
          -23 25 90 vvcurveto
          1076 vlineto
          91 23 24 -70 callgsubr
          -497 -575 497 vlineto
          85 22 24 105 18 vhcurveto
          50 -616 -49 vlineto
          113 -91 callgsubr
          -21 -24 -113 -21 vhcurveto
          -49 616 49 vlineto
          -105 19 -22 23 86 vvcurveto
          -807 891 -50 callgsubr
          endchar
        </CharString>
        <CharString name="Etilde">
          1282 800 64 callsubr
          19 callsubr
          -90 callgsubr
          153 callsubr
          367 -102 -88 callsubr
        </CharString>
        <CharString name="Etildebelow">
          1282 1167 1444 rmoveto
          5 callsubr
          1161 vlineto
          -76 callsubr
          -31 callsubr
          -2 callsubr
          -393 -1464 rmoveto
          106 76 76 194 -12 hvcurveto
          -53 hlineto
          -88 -2 -28 -31 -45 hhcurveto
          -30 -25 12 26 -39 hvcurveto
          -29 19 rlineto
          35 -54 -46 -41 callgsubr
          3 27 31 46 hhcurveto
          30 104 callgsubr
        </CharString>
        <CharString name="F">
          1188 1136 1444 rmoveto
          -1083 77 callsubr
          -26 callsubr
          201 callsubr
        </CharString>
        <CharString name="Fdotaccent">
          1188 656 -53 callsubr
          480 -102 rmoveto
          -1083 77 callsubr
          -26 callsubr
          201 callsubr
        </CharString>
        <CharString name="G">
          1562 83 722 -15 callsubr
        </CharString>
        <CharString name="Gacute">
          1562 815 -92 callsubr
          -91 callsubr
          -670 -808 -15 callsubr
        </CharString>
        <CharString name="Gammagreek">
          1180 1127 1444 rmoveto
          -1074 -60 callsubr
          2 callsubr
          -26 callsubr
          1188 vlineto
          156 -5 262 -10 79 -58 53 -235 rlinecurve
          47 hlineto
          endchar
        </CharString>
        <CharString name="Gbreve">
          1562 875 106 callsubr
          -2 -15 -2 -18 callgsubr
          -792 -845 -15 callsubr
        </CharString>
        <CharString name="Gcaron">
          1562 1130 25 callsubr
          -3 callsubr
          -1107 -1115 -15 callsubr
        </CharString>
        <CharString name="Gcircumflex">
          1562 649 -58 callsubr
          -57 callsubr
          -23 callsubr
          -506 -807 -15 callsubr
        </CharString>
        <CharString name="Gcommaaccent">
          1562 83 722 rmoveto
          -447 322 -298 469 209 209 53 88 120 vhcurveto
          403 vlineto
          89 21 24 107 14 vhcurveto
          49 -579 -49 vlineto
          114 -14 21 -24 -89 vvcurveto
          -417 vlineto
          -34 -39 -75 -25 -90 hhcurveto
          -271 -145 321 370 398 157 265 272 214 141 -176 -239 53 hvcurveto
          47 hlineto
          -10 391 rlineto
          54 -81 -162 38 -217 hhcurveto
          -446 -361 -257 -488 hvcurveto
          772 -1180 22 callsubr
          112 callsubr
          -63 -52 66 callsubr
        </CharString>
        <CharString name="Gdotaccent">
          1562 875 1546 rmoveto
          76 61 55 73 74 -61 54 -76 -88 callgsubr
          -792 -824 -15 callsubr
        </CharString>
        <CharString name="Geacutecyrillic">
          1181 565 -92 callsubr
          -91 callsubr
          624 -86 rmoveto
          -1074 -60 callsubr
          2 callsubr
          -26 callsubr
          51 callgsubr
        </CharString>
        <CharString name="Gecyrillic">
          1181 1127 1444 rmoveto
          -1074 -60 callsubr
          2 callsubr
          -26 callsubr
          51 callgsubr
        </CharString>
        <CharString name="Germandbls">
          1535 543 hmoveto
          1387 vlineto
          173 -7 rlineto
          256 -11 108 -123 -155 vvcurveto
          -134 -76 -89 -147 -22 vhcurveto
          -226 vlineto
          215 -54 106 -132 -165 vvcurveto
          -140 -75 -84 -113 -134 -105 143 216 -38 vhcurveto
          -47 -355 hlineto
          -37 57 124 -34 150 hhcurveto
          237 228 141 268 236 -142 186 -235 62 hvcurveto
          194 14 128 96 153 vvcurveto
          186 -183 124 -414 vhcurveto
          -757 -49 hlineto
          113 -18 22 -24 -88 vvcurveto
          -1086 vlineto
          -88 -22 -24 -113 -18 vhcurveto
          -49 vlineto
          endchar
        </CharString>
        <CharString name="Geupturncyrillic">
          1153 1101 1382 rmoveto
          11 401 rlineto
          -50 hlineto
          -276 -77 -65 -63 -281 hhcurveto
          -586 -60 callsubr
          2 callsubr
          -26 callsubr
          1183 vlineto
          endchar
        </CharString>
        <CharString name="Gmacron">
          1562 593 -42 callsubr
          -510 -1008 -15 callsubr
        </CharString>
        <CharString name="H">
          10 callsubr
          -68 callsubr
          -63 callsubr
          -54 callsubr
          -47 callsubr
        </CharString>
        <CharString name="Hacyrillic">
          1418 280 299 45 callsubr
        </CharString>
        <CharString name="Hardsigncyrillic">
          1636 1570 438 rmoveto
          275 -240 152 -377 vhcurveto
          -169 380 hlineto
          99 22 33 123 18 vhcurveto
          49 -877 vlineto
          -13 -365 rlineto
          47 hlineto
          46 232 74 59 208 14 15 1 rcurveline
          -1189 vlineto
          -97 -22 -32 -122 -18 vhcurveto
          -49 674 91 callgsubr
          -145 -218 -10 vhcurveto
          -95 -3 0 747 90 -2 rlineto
          206 -5 116 -139 -225 vvcurveto
          endchar
        </CharString>
        <CharString name="Hbar">
          10 callsubr
          859 135 61 -135 156 vlineto
          91 22 24 -63 callsubr
          -163 -574 163 vlineto
          -34 callsubr
          -616 83 callsubr
          -156 -135 -61 135 -859 -86 callgsubr
          -40 callsubr
          593 vmoveto
          273 574 -273 vlineto
          endchar
        </CharString>
        <CharString name="Hbrevebelow">
          10 callsubr
          -68 callsubr
          -63 callsubr
          -54 callsubr
          -40 callsubr
          287 -623 rmoveto
          197 96 137 136 20 -1 147 callsubr
        </CharString>
        <CharString name="Hcaron">
          1660 1085 1837 rmoveto
          -241 -136 -240 136 -62 0 209 -289 -49 callsubr
          -602 -1660 rmoveto
          -75 callgsubr
          -68 callsubr
          -63 callsubr
          -54 callsubr
          -47 callsubr
        </CharString>
        <CharString name="Hcedilla">
          1660 334 23 callgsubr
          79 100 rlineto
          273 49 hlineto
          -105 19 -21 23 86 vvcurveto
          -75 callgsubr
          -68 callsubr
          -63 callsubr
          -54 callsubr
          281 vlineto
          -138 -174 rlineto
          -40 vlineto
          5 10 21 4 18 hhcurveto
          57 41 -27 -46 -47 -43 -27 -59 -47 -48 15 20 -27 hvcurveto
          -47 vlineto
          -56 35 82 -38 98 hhcurveto
          endchar
        </CharString>
        <CharString name="Hcircumflex">
          1660 604 69 callsubr
          288 -184 0 -210 -288 rlineto
          -1352 vmoveto
          -75 callgsubr
          -68 callsubr
          -63 callsubr
          -54 callsubr
          -47 callsubr
        </CharString>
        <CharString name="Hdieresis">
          1660 661 1552 rmoveto
          70 57 53 69 70 -57 3 callgsubr
          -456 -1375 rmoveto
          -75 callgsubr
          -68 callsubr
          -63 callsubr
          -54 callsubr
          -47 callsubr
        </CharString>
        <CharString name="Hdotaccent">
          1660 830 1545 rmoveto
          75 61 55 74 73 -61 54 -75 -75 -61 -54 -73 -74 61 -55 75 hvcurveto
          -287 -1368 rmoveto
          -75 callgsubr
          -68 callsubr
          -63 callsubr
          -54 callsubr
          -47 callsubr
        </CharString>
        <CharString name="Hdotbelow">
          10 callsubr
          -68 callsubr
          -63 callsubr
          -54 callsubr
          -40 callsubr
          287 -331 -28 callsubr
        </CharString>
        <CharString name="I">
          27 callsubr
          -81 callsubr
          -89 callsubr
        </CharString>
        <CharString name="IAcyrillic">
          1450 132 1032 rmoveto
          -189 130 -108 182 -44 vhcurveto
          -224 -392 -110 -190 -34 -40 -60 -22 rlinecurve
          -47 392 vlineto
          361 649 rlineto
          133 -472 hlineto
          -84 -20 -23 -106 -21 vhcurveto
          -49 616 49 vlineto
          -112 22 -23 25 88 vvcurveto
          1075 vlineto
          91 23 24 112 20 vhcurveto
          50 -657 vlineto
          -405 -198 -159 -253 hvcurveto
          359 13 rmoveto
          205 114 125 213 9 vhcurveto
          84 3 0 -681 -92 2 rlineto
          -187 6 -132 126 205 vvcurveto
          endchar
        </CharString>
        <CharString name="IJ">
          1462 543 184 -78 callsubr
          134 callsubr
          731 92 rmoveto
          984 vlineto
          90 21 122 callsubr
          22 -24 -90 vvcurveto
          -963 vlineto
          -365 -68 -156 -204 -134 vhcurveto
          21 -53 callgsubr
        </CharString>
        <CharString name="IJacute">
          1462 305 -92 callsubr
          -91 callsubr
          793 -1 rmoveto
          385 284 rlineto
          6 -91 callsubr
          -431 -1346 -78 callsubr
          134 callsubr
          731 92 rmoveto
          984 vlineto
          90 21 122 callsubr
          22 -24 -90 vvcurveto
          -963 vlineto
          -365 -68 -156 -204 -134 vhcurveto
          21 -53 callgsubr
        </CharString>
        <CharString name="IUcyrillic">
          2340 543 177 rmoveto
          530 200 vlineto
          -445 7 333 -285 419 hhcurveto
          455 300 327 421 hvcurveto
          452 1 -338 290 -422 hhcurveto
          -438 -293 -301 -396 -22 hvcurveto
          -202 497 hlineto
          -34 callsubr
          6 callsubr
          -51 callsubr
          -40 callsubr
          965 -132 rmoveto
          -233 -141 279 410 398 103 267 254 233 143 -278 -410 hvcurveto
          -398 -1 -104 -268 -254 hhcurveto
          endchar
        </CharString>
        <CharString name="Iacute">
          731 305 -92 callsubr
          -91 callsubr
          300 -1346 -78 callsubr
          -81 callsubr
          -89 callsubr
        </CharString>
        <CharString name="Ibreve">
          731 365 106 callsubr
          -2 -15 -2 -18 callgsubr
          178 -1383 -78 callsubr
          -81 callsubr
          -89 callsubr
        </CharString>
        <CharString name="Icaron">
          731 620 25 callsubr
          -3 callsubr
          -137 -1653 -78 callsubr
          -81 callsubr
          -89 callsubr
        </CharString>
        <CharString name="Icircumflex">
          731 139 -58 callsubr
          -57 callsubr
          -23 callsubr
          464 -1345 -78 callsubr
          -81 callsubr
          -89 callsubr
        </CharString>
        <CharString name="Icyrillic">
          27 callsubr
          -81 callsubr
          -89 callsubr
        </CharString>
        <CharString name="Idblgrave">
          731 200 107 callsubr
          -49 -1345 -78 callsubr
          -81 callsubr
          -89 callsubr
        </CharString>
        <CharString name="Idieresis">
          731 196 1553 rmoveto
          71 56 52 70 69 -56 52 -71 -70 91 callsubr
          37 callsubr
          8 -1369 -78 callsubr
          -81 callsubr
          -89 callsubr
        </CharString>
        <CharString name="Idieresisacute">
          731 665 41 callsubr
          144 -218 rmoveto
          -32 callgsubr
          90 callsubr
          332 hmoveto
          -32 callgsubr
          90 callsubr
          22 -1372 -78 callsubr
          -81 callsubr
          -89 callsubr
        </CharString>
        <CharString name="Idotaccent">
          731 365 -53 callsubr
          178 -1362 -78 callsubr
          -81 callsubr
          -89 callsubr
        </CharString>
        <CharString name="Idotbelow">
          27 callsubr
          134 callsubr
          -174 -338 -28 callsubr
        </CharString>
        <CharString name="Iecyrillic">
          1282 1167 1444 -88 callsubr
        </CharString>
        <CharString name="Igrave">
          731 455 -29 callsubr
          476 -1628 -78 callsubr
          -81 callsubr
          -89 callsubr
        </CharString>
        <CharString name="Ihookabove">
          731 401 120 callsubr
          24 42 16 48 hhcurveto
          61 158 callsubr
          142 -1680 -78 callsubr
          -81 callsubr
          -89 callsubr
        </CharString>
        <CharString name="Iicyrillic">
          1681 543 177 rmoveto
          72 vlineto
          595 850 rlineto
          -922 -62 callgsubr
          -22 25 90 vvcurveto
          -68 callsubr
          -70 callgsubr
          -71 vlineto
          -595 -850 rlineto
          921 vlineto
          -34 callsubr
          -616 83 callsubr
          -56 callsubr
          -47 callsubr
        </CharString>
        <CharString name="Iinvertedbreve">
          731 365 126 callsubr
          2 -19 2 148 callsubr
          178 -1701 -78 callsubr
          -81 callsubr
          -89 callsubr
        </CharString>
        <CharString name="Iishortcyrillic">
          1681 840 197 callsubr
          -297 -1389 rmoveto
          72 vlineto
          595 850 rlineto
          -922 -62 callgsubr
          -22 25 90 vvcurveto
          -68 callsubr
          -70 callgsubr
          -71 vlineto
          -595 -850 rlineto
          921 vlineto
          -34 callsubr
          -616 83 callsubr
          -56 callsubr
          -47 callsubr
        </CharString>
        <CharString name="Imacron">
          731 83 -42 callsubr
          460 -1546 -78 callsubr
          -81 callsubr
          -89 callsubr
        </CharString>
        <CharString name="Iocyrillic">
          1282 513 -100 callgsubr
          -81 callgsubr
          -4 callsubr
          316 -109 -88 callsubr
        </CharString>
        <CharString name="Iogonek">
          27 callsubr
          297 vlineto
          -107 -67 -76 -105 -113 vvcurveto
          -116 91 -78 120 105 86 56 83 28 vhcurveto
          -1 48 rlineto
          -18 -15 -27 -14 -34 hhcurveto
          -75 -63 86 113 50 11 45 17 30 hvcurveto
          267 49 hlineto
          -112 -89 callsubr
        </CharString>
        <CharString name="Iotadieresisgreek">
          731 196 1553 rmoveto
          71 56 52 70 69 -56 52 -71 -70 91 callsubr
          37 callsubr
          8 -1369 -78 callsubr
          -81 callsubr
          -89 callsubr
        </CharString>
        <CharString name="Iotagreek">
          27 callsubr
          -81 callsubr
          -89 callsubr
        </CharString>
        <CharString name="Iotatonosgreek">
          1067 879 118 callsubr
          -624 -49 vlineto
          113 -91 callgsubr
          -21 -24 -113 -21 vhcurveto
          -49 624 49 vlineto
          -113 21 -22 24 90 vvcurveto
          -807 884 -50 callgsubr
          endchar
        </CharString>
        <CharString name="Itilde">
          731 484 160 callsubr
          -29 -25 70 callsubr
          109 callsubr
          59 -1362 -78 callsubr
          -81 callsubr
          -89 callsubr
        </CharString>
        <CharString name="Itildebelow">
          27 callsubr
          134 callsubr
          -56 -597 -16 callgsubr
          97 callgsubr
          -46 20 -56 hhcurveto
          -106 -76 -76 -196 12 hvcurveto
          53 hlineto
          89 2 28 31 45 hhcurveto
          31 24 -11 -26 39 hvcurveto
          29 -20 rlineto
          -35 54 46 -19 56 hhcurveto
          endchar
        </CharString>
        <CharString name="J">
          731 543 276 rmoveto
          984 61 callsubr
          15 callsubr
        </CharString>
        <CharString name="Jacute">
          731 306 -46 callgsubr
          300 -1254 rmoveto
          984 61 callsubr
          15 callsubr
        </CharString>
        <CharString name="Jcircumflex">
          731 140 69 callsubr
          32 callsubr
          464 -1253 rmoveto
          984 61 callsubr
          15 callsubr
        </CharString>
        <CharString name="Jecyrillic">
          731 543 276 rmoveto
          984 61 callsubr
          15 callsubr
        </CharString>
        <CharString name="K">
          1461 543 177 9 callsubr
        </CharString>
        <CharString name="Kaacutecyrillic">
          1461 730 -92 callsubr
          -91 callsubr
          -125 -1353 9 callsubr
        </CharString>
        <CharString name="Kacute">
          1461 730 -92 callsubr
          -91 callsubr
          -125 -1353 9 callsubr
        </CharString>
        <CharString name="Kacyrillic">
          1461 543 177 9 callsubr
        </CharString>
        <CharString name="Kappagreek">
          1461 543 177 9 callsubr
        </CharString>
        <CharString name="Kcaron">
          1461 1045 1 callsubr
          -25 callsubr
          -49 callsubr
          -562 -1660 9 callsubr
        </CharString>
        <CharString name="Kcommaaccent">
          139 callsubr
          232 -635 rmoveto
          141 -107 callgsubr
          -90 -66 -41 -49 164 callsubr
          -53 -51 -40 callgsubr
        </CharString>
        <CharString name="Kdotbelow">
          139 callsubr
          241 -331 -77 callsubr
          -22 callsubr
        </CharString>
        <CharString name="Klinebelow">
          139 callsubr
          -50 -534 -87 callgsubr
        </CharString>
        <CharString name="L">
          21 callsubr
          endchar
        </CharString>
        <CharString name="Lacute">
          1193 306 -92 callsubr
          -91 callsubr
          897 -1530 rmoveto
          -7 callsubr
          17 callsubr
          endchar
        </CharString>
        <CharString name="Lambdagreek">
          1431 1246 260 rmoveto
          -414 1187 -233 0 -406 -1173 -60 -175 -39 -33 -98 -17 rlinecurve
          -49 392 49 vlineto
          -137 20 -21 43 52 164 rrcurveto
          291 897 296 -915 48 -150 -30 -40 -125 -19 rlinecurve
          -49 673 49 vlineto
          -91 17 -42 33 -56 161 rrcurveto
          endchar
        </CharString>
        <CharString name="Lcaron">
          1193 909 1132 rmoveto
          231 413 -236 0 -45 -413 rlineto
          282 -1132 rmoveto
          -7 callsubr
          17 callsubr
          endchar
        </CharString>
        <CharString name="Lcircumflexbelow">
          21 callsubr
          354 -451 -1 callsubr
          102 callgsubr
        </CharString>
        <CharString name="Lcommaaccent">
          21 callsubr
          584 -458 67 callsubr
          -80 callgsubr
          -62 -53 -52 18 24 -29 hvcurveto
          -1 -44 rlineto
          -53 37 82 -38 96 hhcurveto
          endchar
        </CharString>
        <CharString name="Ldot">
          21 callsubr
          844 679 rmoveto
          88 72 65 -21 callgsubr
          -65 89 hvcurveto
          endchar
        </CharString>
        <CharString name="Ldotbelow">
          21 callsubr
          594 -154 -49 callgsubr
        </CharString>
        <CharString name="Ldotbelowmacron">
          1193 84 -42 callsubr
          1057 -1730 rmoveto
          -7 callsubr
          17 callsubr
          594 -154 -49 callgsubr
        </CharString>
        <CharString name="Ljecyrillic">
          2126 35 callgsubr
          405 -1197 hlineto
          -90 -23 -25 -112 -20 vhcurveto
          -49 666 vlineto
          388 222 172 266 275 -240 152 -376 hvcurveto
          -170 380 hlineto
          99 22 33 123 18 vhcurveto
          49 -1165 -4 callgsubr
          1679 292 rmoveto
          -218 -97 -145 -218 -10 vhcurveto
          -96 -3 0 747 90 -2 rlineto
          207 -5 114 -139 -225 vvcurveto
          endchar
        </CharString>
        <CharString name="Llinebelow">
          21 callsubr
          302 -357 -72 callsubr
        </CharString>
        <CharString name="Lslash">
          1193 53 637 rmoveto
          135 35 rlineto
          -488 -86 callgsubr
          1088 vlineto
          -7 callsubr
          rrcurveto
          -145 -6 0 709 325 87 0 65 -325 -86 rlineto
          417 101 callgsubr
          -522 vlineto
          -135 -36 rlineto
          endchar
        </CharString>
        <CharString name="M">
          1848 574 1444 47 callsubr
        </CharString>
        <CharString name="Macute">
          1848 857 -92 callsubr
          -91 callsubr
          -221 -86 47 callsubr
        </CharString>
        <CharString name="Mdotaccent">
          1848 917 -53 callsubr
          -343 -102 47 callsubr
        </CharString>
        <CharString name="Mdotbelow">
          1848 574 1444 rmoveto
          -507 -49 hlineto
          105 -18 29 -40 -4 -100 rrcurveto
          -36 -977 -7 -155 -20 -38 -116 -18 rlinecurve
          -49 379 50 vlineto
          -121 20 -18 35 1 156 rrcurveto
          5 1006 439 -1267 179 0 94 340 321 924 30 -1083 2 -90 -24 -25 -111 -17 rlinecurve
          -49 623 49 vlineto
          -115 18 -20 25 -3 92 rrcurveto
          -33 1076 -2 90 24 27 111 18 rlinecurve
          49 vlineto
          -512 1 -332 -1058 rlineto
          -145 -541 -77 callsubr
          -21 callsubr
        </CharString>
        <CharString name="Mugreek">
          1848 574 1444 47 callsubr
        </CharString>
        <CharString name="N">
          1473 -24 callsubr
          endchar
        </CharString>
        <CharString name="Nacute">
          1473 711 -92 callsubr
          -91 callsubr
          -114 -86 -14 callsubr
          endchar
        </CharString>
        <CharString name="Ncaron">
          1473 1026 25 callsubr
          -3 callsubr
          -551 -393 -14 callsubr
          endchar
        </CharString>
        <CharString name="Ncircumflexbelow">
          1473 -24 callsubr
          -770 -795 52 callsubr
        </CharString>
        <CharString name="Ncommaaccent">
          1473 -24 callsubr
          -541 -802 rmoveto
          142 -107 callgsubr
          -90 -66 -41 -49 164 callsubr
          -53 -51 18 24 -30 hvcurveto
          -44 vlineto
          -53 37 81 -38 96 hhcurveto
          endchar
        </CharString>
        <CharString name="Ndotaccent">
          1473 771 -53 callsubr
          -236 -102 -14 callsubr
          endchar
        </CharString>
        <CharString name="Ndotbelow">
          1473 -24 callsubr
          -531 -498 -77 callsubr
          -21 callsubr
        </CharString>
        <CharString name="Ngrave">
          1473 861 -29 callsubr
          62 -368 -14 callsubr
          endchar
        </CharString>
        <CharString name="Njecyrillic">
          2251 543 177 rmoveto
          574 500 -574 vlineto
          -86 -21 -23 -105 -19 vhcurveto
          -49 657 vlineto
          391 219 161 250 261 -242 143 -374 hvcurveto
          -170 430 hlineto
          99 23 33 123 18 vhcurveto
          49 -627 -50 vlineto
          105 -18 21 -24 -85 vvcurveto
          -452 -500 452 vlineto
          -34 callsubr
          -616 83 callsubr
          -56 callsubr
          -40 callsubr
          1269 232 rmoveto
          -203 -98 -136 -219 -9 vhcurveto
          -97 -3 0 696 91 -2 rlineto
          207 -5 116 -128 -210 vvcurveto
          endchar
        </CharString>
        <CharString name="Nlinebelow">
          1473 -24 callsubr
          -823 -701 -72 callsubr
        </CharString>
        <CharString name="Ntilde">
          1473 890 64 callsubr
          -4 -27 -30 -44 hhcurveto
          -29 -25 70 callsubr
          109 callsubr
          -355 -102 -14 callsubr
          endchar
        </CharString>
        <CharString name="Nugreek">
          1473 -24 callsubr
          endchar
        </CharString>
        <CharString name="O">
          4 callsubr
          60 callsubr
          -104 callsubr
          -102 callsubr
          -101 callsubr
          -105 callsubr
          -99 callsubr
        </CharString>
        <CharString name="OE">
          2091 83 720 rmoveto
          -448 361 -294 417 vhcurveto
          135 119 22 141 hhcurveto
          768 hlineto
          13 428 rlineto
          -46 hlineto
          -63 -277 -81 -72 -275 -14 rrcurveto
          -194 -8 0 653 195 -5 126 -6 32 -53 29 -153 rlinecurve
          44 491 -44 hlineto
          -30 -153 -31 -53 -126 -6 rrcurveto
          -195 -5 0 620 165 -7 267 -14 82 -72 58 -242 rlinecurve
          46 hlineto
          -13 392 rlineto
          -723 hlineto
          -159 -90 22 -142 hhcurveto
          -480 -306 -325 -421 hvcurveto
          379 4 rmoveto
          396 140 278 287 50 47 -8 -17 37 vhcurveto
          -1306 vlineto
          -14 -39 -49 -6 -49 hhcurveto
          -258 -166 275 402 hvcurveto
          endchar
        </CharString>
        <CharString name="Oacute">
          1694 783 -92 callsubr
          -91 callsubr
          -638 -810 -103 callsubr
          -104 callsubr
          -102 callsubr
          -101 callsubr
          -105 callsubr
          -99 callsubr
        </CharString>
        <CharString name="Obreve">
          1694 843 -101 callgsubr
          -129 -129 -97 63 92 vhcurveto
          2 -54 vlineto
          -3 -15 -1 -18 callgsubr
          -760 -847 -103 callsubr
          -104 callsubr
          -102 callsubr
          -101 callsubr
          -105 callsubr
          -99 callsubr
        </CharString>
        <CharString name="Ocaron">
          1694 1098 1 callsubr
          -25 callsubr
          -49 callsubr
          -1075 -1117 -103 callsubr
          -104 callsubr
          -102 callsubr
          -101 callsubr
          -105 callsubr
          -99 callsubr
        </CharString>
        <CharString name="Ocircumflex">
          1694 617 -58 callsubr
          239 -76 callgsubr
          -474 -809 -103 callsubr
          -104 callsubr
          -102 callsubr
          -101 callsubr
          -105 callsubr
          -99 callsubr
        </CharString>
        <CharString name="Ocircumflexacute">
          1694 1143 -85 callgsubr
          -254 vmoveto
          -45 callsubr
          -460 -823 -103 callsubr
          -104 callsubr
          -102 callsubr
          -101 callsubr
          -105 callsubr
          -99 callsubr
        </CharString>
        <CharString name="Ocircumflexdotbelow">
          1694 617 -58 callsubr
          239 -76 callgsubr
          -474 -809 -103 callsubr
          -104 callsubr
          -102 callsubr
          -101 callsubr
          -105 callsubr
          119 callsubr
          377 -888 -77 callsubr
          -21 callsubr
        </CharString>
        <CharString name="Ocircumflexgrave">
          1694 543 1838 76 callsubr
          -486 vmoveto
          -45 callsubr
          -460 -823 -103 callsubr
          -104 callsubr
          -102 callsubr
          -101 callsubr
          -105 callsubr
          -99 callsubr
        </CharString>
        <CharString name="Ocircumflexhookabove">
          1694 1099 1937 rmoveto
          -84 -63 -36 -45 -35 245 callsubr
          -34 -27 -70 105 callgsubr
          -101 132 callsubr
          -280 79 callsubr
          -460 -823 -103 callsubr
          -104 callsubr
          -102 callsubr
          -101 callsubr
          -105 callsubr
          -99 callsubr
        </CharString>
        <CharString name="Ocircumflextilde">
          1694 967 1787 rmoveto
          111 67 62 119 -2 hvcurveto
          -56 hlineto
          -48 -2 -28 -104 callgsubr
          10 rlineto
          13 -48 157 callsubr
          -39 callgsubr
          -424 -287 rmoveto
          -45 callsubr
          -460 -823 -103 callsubr
          -104 callsubr
          -102 callsubr
          -101 callsubr
          -105 callsubr
          -99 callsubr
        </CharString>
        <CharString name="Ocyrillic">
          4 callsubr
          60 callsubr
          -104 callsubr
          -102 callsubr
          -101 callsubr
          -105 callsubr
          -99 callsubr
        </CharString>
        <CharString name="Odblgrave">
          1694 678 107 callsubr
          -987 -809 -103 callsubr
          -104 callsubr
          -102 callsubr
          -101 callsubr
          -105 callsubr
          -99 callsubr
        </CharString>
        <CharString name="Odieresis">
          1694 674 -100 callgsubr
          91 callsubr
          37 callsubr
          -930 -833 -103 callsubr
          -104 callsubr
          -102 callsubr
          -101 callsubr
          -105 callsubr
          -99 callsubr
        </CharString>
        <CharString name="Odieresismacron">
          1694 542 92 callgsubr
          -32 callgsubr
          90 callsubr
          332 hmoveto
          58 47 37 53 52 -47 -55 callgsubr
          -916 -836 -103 callsubr
          -104 callsubr
          -102 callsubr
          -101 callsubr
          -105 callsubr
          -99 callsubr
        </CharString>
        <CharString name="Odotaccent">
          1694 843 -53 callsubr
          -760 -826 -103 callsubr
          -104 callsubr
          -102 callsubr
          -101 callsubr
          -105 callsubr
          -99 callsubr
        </CharString>
        <CharString name="Odotaccentmacron">
          1694 542 1808 40 callsubr
          301 40 callgsubr
          -760 -829 -103 callsubr
          -104 callsubr
          -102 callsubr
          -101 callsubr
          -105 callsubr
          -99 callsubr
        </CharString>
        <CharString name="Odotbelow">
          4 callsubr
          60 callsubr
          -104 callsubr
          -102 callsubr
          -101 callsubr
          -105 callsubr
          119 callsubr
          377 -888 -77 callsubr
          -21 callsubr
        </CharString>
        <CharString name="Ograve">
          1694 932 218 callsubr
          -461 -1092 -103 callsubr
          -104 callsubr
          -102 callsubr
          -101 callsubr
          -105 callsubr
          -99 callsubr
        </CharString>
        <CharString name="Ohookabove">
          1694 879 1864 rmoveto
          -105 -76 -54 -64 -30 callgsubr
          40 -27 -45 -49 -10 callgsubr
          67 -83 callgsubr
          -796 -1144 -103 callsubr
          -104 callsubr
          -102 callsubr
          -101 callsubr
          -105 callsubr
          -99 callsubr
        </CharString>
        <CharString name="Ohorn">
          1714 83 720 -103 callsubr
          48 callsubr
        </CharString>
        <CharString name="Ohornacute">
          1714 784 -92 callsubr
          -91 callsubr
          -639 -810 -103 callsubr
          48 callsubr
        </CharString>
        <CharString name="Ohorndotbelow">
          1714 83 720 -103 callsubr
          319 -176 241 -247 109 vhcurveto
          -9 45 49 -6 49 hhcurveto
          168 115 63 121 1 hvcurveto
          102 -81 96 -129 43 vhcurveto
          -49 hlineto
          23 -25 17 -56 -55 vvcurveto
          -127 -1 -89 -97 -162 -94 -91 23 -115 -65 callgsubr
          -105 callsubr
          119 callsubr
          375 -888 -77 callsubr
          -11 callgsubr
        </CharString>
        <CharString name="Ohorngrave">
          1714 933 -29 callsubr
          -462 -1092 -103 callsubr
          48 callsubr
        </CharString>
        <CharString name="Ohornhookabove">
          1714 880 1864 48 callgsubr
          -49 -10 callgsubr
          67 -83 callgsubr
          -797 -1144 -103 callsubr
          48 callsubr
        </CharString>
        <CharString name="Ohorntilde">
          1714 962 1546 rmoveto
          106 78 77 199 -11 hvcurveto
          -57 hlineto
          -88 19 callsubr
          -90 callgsubr
          84 callgsubr
          -35 53 45 -20 57 hhcurveto
          -879 -826 -103 callsubr
          48 callsubr
        </CharString>
        <CharString name="Ohungarumlaut">
          1694 680 1818 rmoveto
          -25 -289 64 0 232 226 callsubr
          338 284 rlineto
          6 vlineto
          -1260 -1099 -103 callsubr
          -104 callsubr
          -102 callsubr
          -101 callsubr
          -105 callsubr
          -99 callsubr
        </CharString>
        <CharString name="Oinvertedbreve">
          1694 843 126 callsubr
          1 -19 3 -16 hvcurveto
          54 3 hlineto
          93 96 62 130 129 -69 callgsubr
          -95 133 -189 vhcurveto
          -760 -1165 -103 callsubr
          -104 callsubr
          -102 callsubr
          -101 callsubr
          -105 callsubr
          -99 callsubr
        </CharString>
        <CharString name="Omacron">
          1694 561 -42 callsubr
          -478 -1010 -103 callsubr
          -104 callsubr
          -102 callsubr
          -101 callsubr
          -105 callsubr
          -99 callsubr
        </CharString>
        <CharString name="Omacronacute">
          1694 1143 23 callsubr
          -8 callgsubr
          -459 -984 -103 callsubr
          -104 callsubr
          -102 callsubr
          -101 callsubr
          -105 callsubr
          -99 callsubr
        </CharString>
        <CharString name="Omacrongrave">
          1694 543 84 callsubr
          -1 -419 40 callsubr
          -459 -984 -103 callsubr
          -104 callsubr
          -102 callsubr
          -101 callsubr
          -105 callsubr
          -99 callsubr
        </CharString>
        <CharString name="Omegagreek">
          1617 85 39 callgsubr
          243 247 80 callgsubr
          630 vlineto
          53 41 callgsubr
          230 229 309 vvcurveto
          324 -280 269 -465 -462 5 callgsubr
          endchar
        </CharString>
        <CharString name="Omegatonosgreek">
          1771 239 39 callgsubr
          244 246 80 callgsubr
          631 vlineto
          52 41 callgsubr
          231 229 309 vvcurveto
          324 -281 269 -464 -463 5 callgsubr
          -114 644 -50 callgsubr
          endchar
        </CharString>
        <CharString name="Omicrongreek">
          4 callsubr
          60 callsubr
          -104 callsubr
          -102 callsubr
          -101 callsubr
          -105 callsubr
          -99 callsubr
        </CharString>
        <CharString name="Omicrontonosgreek">
          1788 177 720 -103 callsubr
          -104 callsubr
          -102 callsubr
          -105 348 -50 callgsubr
          563 -334 rmoveto
          396 105 269 259 -105 callsubr
          -99 callsubr
        </CharString>
        <CharString name="Oogonek">
          4 callsubr
          180 callsubr
        </CharString>
        <CharString name="Oogonekmacron">
          1694 561 -42 callsubr
          -478 -1010 rmoveto
          180 callsubr
        </CharString>
        <CharString name="Oslash">
          4 callsubr
          170 callsubr
        </CharString>
        <CharString name="Oslashacute">
          1694 783 -92 callsubr
          -91 callsubr
          -638 -810 rmoveto
          170 callsubr
        </CharString>
        <CharString name="Otilde">
          1694 961 1546 rmoveto
          106 78 77 199 -11 hvcurveto
          -56 hlineto
          -88 -4 -27 -30 -44 hhcurveto
          -30 -24 70 callsubr
          -106 -77 -77 -200 11 hvcurveto
          57 hlineto
          89 3 27 30 45 hhcurveto
          29 25 -12 -25 39 hvcurveto
          29 -19 rlineto
          -35 53 46 -20 56 hhcurveto
          -878 -826 -103 callsubr
          -104 callsubr
          -102 callsubr
          -101 callsubr
          -105 callsubr
          -99 callsubr
        </CharString>
        <CharString name="Otildeacute">
          1694 1143 41 callsubr
          424 -211 68 callsubr
          -104 callgsubr
          11 rlineto
          13 -48 -47 10 -51 hhcurveto
          -110 -68 -62 -118 2 hvcurveto
          57 hlineto
          48 1 28 19 52 hhcurveto
          30 31 -6 -31 callgsubr
          -884 -843 -103 callsubr
          -104 callsubr
          -102 callsubr
          -101 callsubr
          -105 callsubr
          -99 callsubr
        </CharString>
        <CharString name="Otildedieresis">
          1694 687 93 callgsubr
          -47 -37 -53 -52 47 -38 58 hvcurveto
          332 hmoveto
          -20 callgsubr
          -32 -237 68 callsubr
          -104 callgsubr
          11 rlineto
          13 -48 -47 10 -51 hhcurveto
          -110 -68 -62 -118 2 hvcurveto
          57 hlineto
          48 1 28 19 52 hhcurveto
          30 31 -6 -31 callgsubr
          -884 -843 -103 callsubr
          -104 callsubr
          -102 callsubr
          -101 callsubr
          -105 callsubr
          -99 callsubr
        </CharString>
        <CharString name="Otildemacron">
          1694 542 1832 40 callsubr
          425 -385 68 callsubr
          -104 callgsubr
          11 rlineto
          13 -48 -47 10 -51 hhcurveto
          -110 -68 -62 -118 2 hvcurveto
          57 hlineto
          48 1 28 19 52 hhcurveto
          30 31 -6 -31 callgsubr
          -884 -843 -103 callsubr
          -104 callsubr
          -102 callsubr
          -101 callsubr
          -105 callsubr
          -99 callsubr
        </CharString>
        <CharString name="P">
          1406 1332 1026 49 callsubr
        </CharString>
        <CharString name="Pacute">
          1406 621 -92 callsubr
          -91 callsubr
          773 -504 49 callsubr
        </CharString>
        <CharString name="Pdotaccent">
          1406 682 -18 callsubr
          -61 -54 -74 -73 61 -55 76 hvcurveto
          650 -520 49 callsubr
        </CharString>
        <CharString name="Pecyrillic">
          1649 1461 118 callsubr
          -1543 83 callsubr
          -56 callsubr
          -40 callsubr
          1205 563 -1205 -47 callgsubr
          -89 callsubr
        </CharString>
        <CharString name="Phigreek">
          1937 69 722 rmoveto
          -319 281 -190 453 -12 vhcurveto
          -2 vlineto
          -99 -23 -33 -123 -18 vhcurveto
          -49 623 -96 callgsubr
          2 vlineto
          438 12 296 177 330 vvcurveto
          320 -290 189 -444 13 vhcurveto
          3 vlineto
          99 23 33 123 18 vhcurveto
          49 -623 -49 vlineto
          123 -18 23 -33 -99 vvcurveto
          -3 vlineto
          -429 -12 -305 -175 -333 vvcurveto
          1440 -1 rmoveto
          -263 -146 -176 -229 -21 vhcurveto
          921 vlineto
          246 -20 129 -178 -263 vvcurveto
          -1081 3 rmoveto
          260 143 177 232 21 vhcurveto
          -921 vlineto
          -242 20 -133 177 266 vvcurveto
          endchar
        </CharString>
        <CharString name="Pigreek">
          1622 1434 118 callsubr
          -1516 -49 vlineto
          113 -21 -51 callsubr
          -40 callsubr
          1205 536 -1205 -47 callgsubr
          -89 callsubr
        </CharString>
        <CharString name="Psigreek">
          1907 1120 199 rmoveto
          316 vlineto
          345 11 188 118 49 347 rrcurveto
          32 228 17 125 34 34 88 4 rlinecurve
          50 vlineto
          5 -32 -67 7 -59 hhcurveto
          -178 -96 -68 -208 -30 hvcurveto
          -34 -233 -36 -241 -62 -100 -159 -17 rlinecurve
          690 vlineto
          86 21 23 105 18 vhcurveto
          50 -584 -50 vlineto
          104 -18 22 -23 -86 vvcurveto
          -690 vlineto
          -159 17 -63 99 -36 242 -33 233 rcurveline
          208 -31 -96 68 -178 hhcurveto
          -59 -67 -7 -5 -33 hvcurveto
          -50 vlineto
          90 -4 33 -34 18 -125 rrcurveto
          31 -228 49 -348 188 -117 346 -11 rlinecurve
          -316 0 callsubr
          622 82 callsubr
          endchar
        </CharString>
        <CharString name="Q">
          4 callsubr
          -406 275 -277 367 -51 vhcurveto
          134 -129 rlineto
          -180 178 104 -49 144 hhcurveto
          120 114 38 60 96 hvcurveto
          45 vlineto
          -115 -16 -107 42 -186 150 -90 72 rcurveline
          305 101 189 275 330 vvcurveto
          -104 callsubr
          -427 -459 -303 -328 -419 vhcurveto
          393 14 rmoveto
          396 105 269 258 235 145 -279 -409 vhcurveto
          -396 -1 -106 -270 -256 hhcurveto
          -236 -144 281 408 hvcurveto
          endchar
        </CharString>
        <CharString name="R">
          1437 1308 1056 138 callsubr
          endchar
        </CharString>
        <CharString name="Racute">
          1437 625 -92 callsubr
          -91 callsubr
          745 -474 138 callsubr
          endchar
        </CharString>
        <CharString name="Rcaron">
          1437 940 25 callsubr
          -3 callsubr
          308 -781 138 callsubr
          endchar
        </CharString>
        <CharString name="Rcommaaccent">
          -45 callgsubr
          -215 -1495 22 callsubr
          112 callsubr
          -63 -52 66 callsubr
        </CharString>
        <CharString name="Rdblgrave">
          1437 520 107 callsubr
          396 -473 138 callsubr
          endchar
        </CharString>
        <CharString name="Rdotaccent">
          1437 685 -53 callsubr
          623 -490 138 callsubr
          endchar
        </CharString>
        <CharString name="Rdotbelow">
          -45 callgsubr
          -206 -1191 -77 callsubr
          -11 callgsubr
        </CharString>
        <CharString name="Rdotbelowmacron">
          1437 403 -42 callsubr
          905 -674 138 callsubr
          -206 -1191 -77 callsubr
          -11 callgsubr
        </CharString>
        <CharString name="Rhogreek">
          1406 1332 1026 49 callsubr
        </CharString>
        <CharString name="Rinvertedbreve">
          1437 685 126 callsubr
          2 -19 2 148 callsubr
          623 -829 138 callsubr
          endchar
        </CharString>
        <CharString name="Rlinebelow">
          -45 callgsubr
          -497 -1394 -72 callsubr
        </CharString>
        <CharString name="S">
          1250 590 -23 93 callsubr
          endchar
        </CharString>
        <CharString name="Sacute">
          1250 596 -92 callsubr
          -331 vlineto
          -116 -289 rlineto
          56 -1553 93 callsubr
          endchar
        </CharString>
        <CharString name="Sacutedotaccent">
          1250 657 1765 rmoveto
          83 callgsubr
          299 -142 rmoveto
          147 vlineto
          -600 -190 rlineto
          -42 vlineto
          234 -1561 93 callsubr
          endchar
        </CharString>
        <CharString name="Scaron">
          1250 911 -34 callgsubr
          244 callsubr
          -382 -1860 93 callsubr
          endchar
        </CharString>
        <CharString name="Scarondotaccent">
          1250 657 1785 rmoveto
          169 callsubr
          307 -10 rmoveto
          -307 89 callgsubr
          -375 -1756 93 callsubr
          endchar
        </CharString>
        <CharString name="Scedilla">
          1250 586 -458 159 callsubr
          66 78 rlineto
          303 16 229 164 271 vvcurveto
          214 -126 152 -261 88 vhcurveto
          -125 43 rlineto
          -169 58 -84 74 125 vvcurveto
          126 92 90 171 185 133 -144 -226 51 vhcurveto
          47 hlineto
          -9 349 rlineto
          50 -75 -146 39 -189 hhcurveto
          -345 -231 -160 -272 -210 136 -146 249 -84 hvcurveto
          126 -42 rlineto
          178 -61 76 -83 -127 vvcurveto
          -141 -107 -96 -163 -204 -182 155 268 -56 vhcurveto
          -47 hlineto
          14 -392 98 -55 169 -42 197 -2 rlinecurve
          -125 -151 167 callsubr
        </CharString>
        <CharString name="Schwa">
          1523 700 -23 rmoveto
          470 269 310 436 496 -349 249 -445 -221 -170 -38 -54 -83 hvcurveto
          -10 -391 rlineto
          47 hlineto
          235 52 145 179 224 hhcurveto
          268 155 -257 -425 hvcurveto
          -7 0 -7 -7 vvcurveto
          -990 1 rlineto
          -3 -27 -4 -37 -35 vvcurveto
          -370 229 -251 416 vhcurveto
          -298 570 rmoveto
          28 1 31 3 27 vhcurveto
          645 3 rlineto
          -349 -13 -102 -242 -233 hhcurveto
          -229 -72 244 258 hvcurveto
          endchar
        </CharString>
        <CharString name="Scircumflex">
          1250 430 -58 callsubr
          -57 callsubr
          -23 callsubr
          220 -1552 93 callsubr
          endchar
        </CharString>
        <CharString name="Scommaaccent">
          1250 590 -23 93 callsubr
          12 -435 67 callsubr
          -65 -41 -49 -30 hvcurveto
          -43 vlineto
          17 8 29 7 30 -1 rrcurveto
          59 43 -25 -45 -44 -41 -26 -62 -53 -52 18 24 -29 hvcurveto
          -1 -44 rlineto
          -53 37 82 -38 96 hhcurveto
          endchar
        </CharString>
        <CharString name="Sdotaccent">
          1250 657 -18 callsubr
          -37 callsubr
          -67 -1569 93 callsubr
          endchar
        </CharString>
        <CharString name="Sdotbelow">
          1250 590 -23 93 callsubr
          22 -131 -28 callsubr
        </CharString>
        <CharString name="Sdotbelowdotaccent">
          1250 657 -18 callsubr
          -37 callsubr
          -67 -1569 93 callsubr
          22 -131 -28 callsubr
        </CharString>
        <CharString name="Shacyrillic">
          2395 2207 118 callsubr
          -616 242 callsubr
          105 -18 21 163 callsubr
          6 callsubr
          -51 callsubr
          2289 49 vlineto
          -113 -89 callsubr
        </CharString>
        <CharString name="Shchacyrillic">
          2423 2385 62 rmoveto
          -178 1198 hlineto
          -106 callgsubr
          242 callsubr
          104 -18 22 163 callsubr
          6 callsubr
          -51 callsubr
          1933 vlineto
          226 53 -58 -281 78 hvcurveto
          50 hlineto
          endchar
        </CharString>
        <CharString name="Sigmagreek">
          221 callsubr
          494 -727 -483 -489 rlineto
          -181 1146 vlineto
          15 515 rlineto
          -53 hlineto
          -218 -56 -77 -49 -300 hhcurveto
          -520 hlineto
          607 559 0 17 -374 564 234 -9 307 -13 82 -77 58 -235 rlinecurve
          46 hlineto
          endchar
        </CharString>
        <CharString name="Softsigncyrillic">
          1396 1329 438 rmoveto
          275 -240 152 -376 vhcurveto
          -170 380 -36 callgsubr
          114 -21 21 -24 -90 vvcurveto
          -56 callsubr
          665 91 callgsubr
          12 callgsubr
        </CharString>
        <CharString name="T">
          1353 -43 callsubr
          -64 callsubr
          -50 callsubr
          -69 callsubr
          -46 callsubr
          -6 callsubr
          endchar
        </CharString>
        <CharString name="Taugreek">
          1353 -43 callsubr
          -64 callsubr
          -50 callsubr
          -69 callsubr
          -46 callsubr
          -6 callsubr
          endchar
        </CharString>
        <CharString name="Tbar">
          1353 223 710 rmoveto
          276 -511 hlineto
          -100 -22 -32 -123 -18 vhcurveto
          -49 -69 callsubr
          32 100 vvcurveto
          511 276 60 -276 617 -6 callsubr
          -14 393 -1248 0 -13 -64 callsubr
          -617 -276 vlineto
          endchar
        </CharString>
        <CharString name="Tcaron">
          1353 931 1 callsubr
          -25 callsubr
          -49 callsubr
          309 -393 rmoveto
          -1248 hlineto
          -13 -64 callsubr
          -50 callsubr
          -69 callsubr
          -46 callsubr
          -6 callsubr
          endchar
        </CharString>
        <CharString name="Tcedilla">
          1353 651 23 callgsubr
          80 100 rlineto
          286 49 hlineto
          -124 18 -22 -46 callsubr
          -6 callsubr
          -14 393 -1248 0 -13 -64 callsubr
          -50 callsubr
          297 vlineto
          -138 -174 1 -40 rlineto
          5 9 21 4 18 hhcurveto
          57 41 -27 -46 -47 -42 -27 -60 -47 107 callgsubr
        </CharString>
        <CharString name="Tcircumflexbelow">
          1353 -43 callsubr
          -64 callsubr
          -50 callsubr
          -69 callsubr
          -46 callsubr
          -6 callsubr
          -877 -1502 -1 callsubr
          62 callsubr
        </CharString>
        <CharString name="Tcommaaccent">
          1353 -43 callsubr
          -64 callsubr
          -50 callsubr
          -69 callsubr
          -46 callsubr
          -6 callsubr
          -647 -1509 rmoveto
          141 -107 callgsubr
          -90 -66 -41 -49 164 callsubr
          -53 -51 -40 callgsubr
        </CharString>
        <CharString name="Tdotaccent">
          1353 676 -53 callsubr
          624 -102 rmoveto
          -1248 hlineto
          -13 -64 callsubr
          -50 callsubr
          -69 callsubr
          -46 callsubr
          -6 callsubr
          endchar
        </CharString>
        <CharString name="Tdotbelow">
          1353 -43 callsubr
          -64 callsubr
          -50 callsubr
          -69 callsubr
          -46 callsubr
          -6 callsubr
          -638 -1205 -77 callsubr
          -22 callsubr
        </CharString>
        <CharString name="Tecyrillic">
          1353 -43 callsubr
          -64 callsubr
          -50 callsubr
          -69 callsubr
          -46 callsubr
          -6 callsubr
          endchar
        </CharString>
        <CharString name="Thetagreek">
          1706 855 -23 rmoveto
          463 305 328 419 451 -343 292 -429 -464 -304 -329 -419 -450 343 -292 429 hvcurveto
          3 62 rmoveto
          -256 -152 272 422 414 115 258 283 256 152 -269 -425 -413 -116 -259 -282 hvcurveto
          -267 444 rmoveto
          39 hlineto
          134 20 47 72 131 hhcurveto
          52 hlineto
          131 48 -72 -134 19 hvcurveto
          40 479 -40 hlineto
          -132 -19 -48 -70 -131 hhcurveto
          -52 hlineto
          -131 -47 70 132 -20 hvcurveto
          -39 hlineto
          endchar
        </CharString>
        <CharString name="Thorn">
          1390 1333 751 rmoveto
          266 -240 125 -403 vhcurveto
          -147 103 -36 callgsubr
          113 -21 -51 callsubr
          -26 callsubr
          134 147 vlineto
          380 1 263 146 271 vvcurveto
          -374 -18 rmoveto
          -207 -128 -124 -216 -9 vhcurveto
          -72 -3 0 696 72 -3 rlineto
          227 -9 117 -144 -197 vvcurveto
          endchar
        </CharString>
        <CharString name="Tlinebelow">
          1353 -43 callsubr
          -64 callsubr
          -50 callsubr
          -69 callsubr
          -46 callsubr
          -6 callsubr
          -929 -1408 -87 callgsubr
        </CharString>
        <CharString name="Tsecyrillic">
          1677 1640 62 rmoveto
          -179 1198 hlineto
          -106 callgsubr
          -50 vlineto
          105 -18 21 -24 -85 vvcurveto
          -1205 -563 1205 vlineto
          -34 callsubr
          6 callsubr
          -51 callsubr
          1188 vlineto
          225 53 -58 -281 79 hvcurveto
          50 hlineto
          endchar
        </CharString>
        <CharString name="Tshecyrillic">
          1822 -43 callsubr
          209 callsubr
          494 vlineto
          35 57 76 17 90 hhcurveto
          174 91 -103 -217 hvcurveto
          -415 481 49 vlineto
          -105 19 -22 23 86 vvcurveto
          221 vlineto
          305 -210 128 -279 -153 -124 -34 -50 -76 vhcurveto
          639 112 callgsubr
        </CharString>
        <CharString name="U">
          1505 161 1265 -82 callsubr
        </CharString>
        <CharString name="Uacute">
          1505 776 -46 callgsubr
          -552 -265 -82 callsubr
        </CharString>
        <CharString name="Ubreve">
          1505 836 -101 callgsubr
          -130 -129 -96 63 92 vhcurveto
          2 -55 vlineto
          -2 -15 -2 -19 -18 vvcurveto
          -133 96 -133 189 vhcurveto
          -675 -302 -82 callsubr
        </CharString>
        <CharString name="Ubrevecyrillic">
          1431 827 197 callsubr
          -604 -1425 177 callsubr
        </CharString>
        <CharString name="Ucaron">
          1505 1091 1 callsubr
          -25 callsubr
          -49 callsubr
          -990 -572 -82 callsubr
        </CharString>
        <CharString name="Ucircumflex">
          1505 610 69 callsubr
          32 callsubr
          -388 -264 -82 callsubr
        </CharString>
        <CharString name="Ucircumflexbelow">
          110 callsubr
          410 -1716 -1 callsubr
          62 callsubr
        </CharString>
        <CharString name="Ucyrillic">
          1431 223 141 177 callsubr
        </CharString>
        <CharString name="Udblgrave">
          1505 670 1818 -7 callgsubr
          68 hlineto
          257 -60 callgsubr
          -901 -264 -82 callsubr
        </CharString>
        <CharString name="Udieresis">
          1505 667 1553 rmoveto
          65 callsubr
          -4 callsubr
          -844 -288 -82 callsubr
        </CharString>
        <CharString name="Udieresisacute">
          1505 1136 41 callsubr
          143 -218 rmoveto
          -32 callgsubr
          -46 -38 -52 -53 46 -37 58 hvcurveto
          333 75 callsubr
          -831 -291 -82 callsubr
        </CharString>
        <CharString name="Udieresisbelow">
          110 callsubr
          437 -1675 rmoveto
          168 callsubr
          424 hmoveto
          168 callsubr
          endchar
        </CharString>
        <CharString name="Udieresiscaron">
          1505 1136 17 callgsubr
          -457 -402 rmoveto
          -32 callgsubr
          -46 -38 -52 -53 46 -37 58 hvcurveto
          333 75 callsubr
          -831 -291 -82 callsubr
        </CharString>
        <CharString name="Udieresisgrave">
          1505 536 114 callgsubr
          143 -451 rmoveto
          -32 callgsubr
          -46 -38 -52 -53 46 -37 58 hvcurveto
          333 75 callsubr
          -831 -291 -82 callsubr
        </CharString>
        <CharString name="Udieresismacron">
          1505 535 1833 rmoveto
          602 115 -602 hlineto
          144 -392 rmoveto
          -32 callgsubr
          -46 -38 -52 -53 46 -37 58 hvcurveto
          333 75 callsubr
          -831 -291 -82 callsubr
        </CharString>
        <CharString name="Udotbelow">
          110 callsubr
          649 -1419 -77 callsubr
          -22 callsubr
        </CharString>
        <CharString name="Ugrave">
          1505 925 -29 callsubr
          -376 -547 -82 callsubr
        </CharString>
        <CharString name="Uhookabove">
          1505 871 120 callsubr
          25 42 16 47 hhcurveto
          62 40 -27 -45 -49 238 callsubr
          -710 -599 -82 callsubr
        </CharString>
        <CharString name="Uhorn">
          1668 167 547 46 callsubr
        </CharString>
        <CharString name="Uhornacute">
          1668 793 -92 callsubr
          -91 callsubr
          -564 -983 46 callsubr
        </CharString>
        <CharString name="Uhorndotbelow">
          1668 167 547 rmoveto
          -398 276 -172 332 362 206 222 339 3 vhcurveto
          7 867 rlineto
          -6 26 28 -3 28 hhcurveto
          144 92 64 108 99 -78 94 -125 43 hvcurveto
          -48 hlineto
          22 -25 17 -55 -56 vvcurveto
          -123 -91 -101 -181 vhcurveto
          -75 -50 hlineto
          135 -21 19 -27 -134 vvcurveto
          7 -665 rlineto
          -278 2 -146 -168 -229 hhcurveto
          -225 -153 139 312 hvcurveto
          705 vlineto
          92 23 24 132 22 vhcurveto
          49 -652 -49 vlineto
          119 -21 23 -25 -92 vvcurveto
          637 -1411 -77 callsubr
          -22 callsubr
        </CharString>
        <CharString name="Uhorngrave">
          1668 943 -29 callsubr
          -388 -1265 46 callsubr
        </CharString>
        <CharString name="Uhornhookabove">
          1668 889 1864 rmoveto
          -105 -76 -54 -64 -30 callgsubr
          158 callsubr
          -722 -1317 46 callsubr
        </CharString>
        <CharString name="Uhorntilde">
          1668 972 160 callsubr
          -30 -24 70 callsubr
          109 callsubr
          -805 -999 46 callsubr
        </CharString>
        <CharString name="Uhungarumlaut">
          1505 673 1818 rmoveto
          -25 -289 63 0 232 284 rlineto
          6 vlineto
          97 -1 rmoveto
          -112 -289 70 0 337 284 rlineto
          6 vlineto
          -1174 -554 -82 callsubr
        </CharString>
        <CharString name="Uinvertedbreve">
          1505 835 1885 rmoveto
          -189 -95 -133 -132 -18 2 -19 16 callgsubr
          -674 -620 -82 callsubr
        </CharString>
        <CharString name="Umacron">
          1505 554 -26 callgsubr
          -393 -465 -82 callsubr
        </CharString>
        <CharString name="Umacrondieresis">
          1505 679 93 callgsubr
          -46 -37 -53 -52 46 -38 58 hvcurveto
          333 205 callsubr
          -397 -439 -82 callsubr
        </CharString>
        <CharString name="Uogonek">
          1505 819 -479 rmoveto
          105 86 56 83 28 hvcurveto
          48 vlineto
          -18 -15 -28 -14 -34 hhcurveto
          -74 -65 81 108 45 10 42 17 29 hvcurveto
          316 31 169 218 5 316 rrcurveto
          10 633 4 159 18 38 111 18 rlinecurve
          50 -372 -50 vlineto
          123 -20 20 -37 3 -161 10 -613 rcurveline
          -292 5 -154 -170 -227 11 callgsubr
          -24 callgsubr
          vhcurveto
          4 4 0 3 hhcurveto
          -102 -65 -69 -95 -103 vvcurveto
          -115 90 -78 121 vhcurveto
          endchar
        </CharString>
        <CharString name="Upsilondieresisgreek">
          1381 614 1553 rmoveto
          65 callsubr
          -4 callsubr
          -746 -359 -66 callsubr
        </CharString>
        <CharString name="Upsilongreek">
          1381 206 1194 -66 callsubr
        </CharString>
        <CharString name="Upsilontonosgreek">
          1754 579 1194 rmoveto
          309 -549 rlineto
          -446 vlineto
          -99 -23 -33 -123 -18 vhcurveto
          -49 647 49 vlineto
          -124 18 -22 33 99 vvcurveto
          468 vlineto
          282 495 103 179 36 35 97 19 rlinecurve
          49 -384 -49 vlineto
          128 -19 14 -41 -87 -172 rrcurveto
          -220 -433 -247 456 -81 151 18 41 119 17 rlinecurve
          49 -654 -49 vlineto
          91 -19 34 -31 87 -151 rrcurveto
          -507 -126 -50 callgsubr
          endchar
        </CharString>
        <CharString name="Uring">
          1505 571 1722 rmoveto
          -106 114 -68 151 151 113 67 107 106 -112 70 -152 -152 -113 -70 -106 vhcurveto
          183 hmoveto
          75 32 53 50 49 33 -53 -75 -76 -33 -51 -49 -50 -32 51 76 vhcurveto
          -593 -457 -82 callsubr
        </CharString>
        <CharString name="Utilde">
          1505 954 64 callsubr
          19 callsubr
          -90 callgsubr
          153 callsubr
          -793 -281 -82 callsubr
        </CharString>
        <CharString name="Utildeacute">
          1505 1136 41 callsubr
          424 -211 rmoveto
          110 68 63 118 -2 hvcurveto
          -57 hlineto
          -48 -1 -28 -20 -52 hhcurveto
          -30 108 callsubr
          30 31 -6 -12 42 hvcurveto
          37 -10 rlineto
          -14 48 47 -11 51 hhcurveto
          -799 -298 -82 callsubr
        </CharString>
        <CharString name="Utildebelow">
          110 callsubr
          768 -1678 -73 callgsubr
          -29 -25 -67 callgsubr
          3 27 31 45 hhcurveto
          31 104 callgsubr
        </CharString>
        <CharString name="V">
          220 callsubr
          endchar
        </CharString>
        <CharString name="Vdotbelow">
          220 callsubr
          543 -1332 -49 callgsubr
        </CharString>
        <CharString name="Vecyrillic">
          1445 1371 418 99 callsubr
        </CharString>
        <CharString name="Vtilde">
          1436 935 64 callsubr
          19 callsubr
          -58 hhcurveto
          -105 -77 -77 -200 11 hvcurveto
          153 callsubr
          -754 -368 rmoveto
          189 callsubr
          endchar
        </CharString>
        <CharString name="W">
          2226 176 1178 8 callsubr
        </CharString>
        <CharString name="Wacute">
          2226 1147 -92 callsubr
          -91 callsubr
          -909 -352 8 callsubr
        </CharString>
        <CharString name="Wcircumflex">
          2226 981 -58 callsubr
          -57 callsubr
          -23 callsubr
          -745 -351 8 callsubr
        </CharString>
        <CharString name="Wdieresis">
          2226 1038 -100 callgsubr
          91 callsubr
          37 callsubr
          -1201 -375 8 callsubr
        </CharString>
        <CharString name="Wdotaccent">
          2226 1207 -53 callsubr
          -1031 -368 8 callsubr
        </CharString>
        <CharString name="Wdotbelow">
          2226 176 1178 rmoveto
          366 -1181 221 0 352 1154 342 -1154 224 0 359 1145 61 198 35 37 103 18 rlinecurve
          49 -396 -49 vlineto
          133 -21 17 -42 -50 -183 rrcurveto
          -230 -841 -240 878 -44 158 9 31 121 20 rlinecurve
          49 -623 -49 vlineto
          124 -21 14 -31 -43 -160 rrcurveto
          -237 -874 -242 868 -42 157 19 42 130 19 rlinecurve
          49 -668 -49 vlineto
          96 -17 38 -35 51 -165 rrcurveto
          936 -1332 -77 callsubr
          -22 callsubr
        </CharString>
        <CharString name="Wgrave">
          2226 1296 218 callsubr
          -732 -634 8 callsubr
        </CharString>
        <CharString name="X">
          1418 280 299 45 callsubr
        </CharString>
        <CharString name="Xdieresis">
          1418 635 1553 rmoveto
          65 callsubr
          -4 callsubr
          -693 -1254 45 callsubr
        </CharString>
        <CharString name="Xdotaccent">
          1418 804 -18 callsubr
          -37 callsubr
          -524 -1247 45 callsubr
        </CharString>
        <CharString name="Xigreek">
          1350 1259 1444 rmoveto
          -1167 hlineto
          -20 -442 rlineto
          47 hlineto
          173 47 76 35 261 hhcurveto
          343 hlineto
          261 76 -35 -173 48 hvcurveto
          47 hlineto
          -651 -305 rmoveto
          96 hlineto
          192 51 -50 -149 28 hvcurveto
          44 457 -44 hlineto
          -146 -28 -51 -48 -192 hhcurveto
          -96 hlineto
          -192 -51 48 146 -28 hvcurveto
          -45 -457 45 hlineto
          149 28 51 50 192 hhcurveto
          654 -697 rmoveto
          17 495 rlineto
          -47 hlineto
          -210 -50 -76 -42 -289 hhcurveto
          -322 hlineto
          -289 -76 42 210 -51 hvcurveto
          -46 hlineto
          17 -495 rlineto
          endchar
        </CharString>
        <CharString name="Xigreek.1">
          1351 628 697 rmoveto
          23 -454 -137 hlineto
          -289 -76 42 210 -50 hvcurveto
          -47 hlineto
          18 -495 1211 0 18 495 rlineto
          -47 hlineto
          -210 -51 -76 -42 -288 hhcurveto
          -136 454 23 hlineto
          191 52 -50 -149 27 hvcurveto
          45 457 -45 hlineto
          -146 -28 -51 -48 -191 hhcurveto
          -23 449 146 hlineto
          260 77 -36 -172 47 hvcurveto
          47 hlineto
          -18 442 -1167 0 -21 -442 rlineto
          47 hlineto
          172 47 77 36 261 hhcurveto
          147 -449 -23 hlineto
          -193 -51 48 146 -28 hvcurveto
          -44 -457 44 hlineto
          149 28 51 50 193 hhcurveto
          endchar
        </CharString>
        <CharString name="Y">
          1381 206 1194 -66 callsubr
        </CharString>
        <CharString name="Yacute">
          1381 722 -92 callsubr
          -331 vlineto
          -116 -289 rlineto
          -454 -336 -66 callsubr
        </CharString>
        <CharString name="Ycircumflex">
          1381 556 -58 callsubr
          -57 callsubr
          -23 callsubr
          -290 -335 -66 callsubr
        </CharString>
        <CharString name="Ydieresis">
          1381 614 1553 rmoveto
          65 callsubr
          -4 callsubr
          -746 -359 -66 callsubr
        </CharString>
        <CharString name="Ydotaccent">
          1381 783 -18 callsubr
          -37 callsubr
          -577 -352 -66 callsubr
        </CharString>
        <CharString name="Ydotbelow">
          1381 206 1194 rmoveto
          308 -549 rlineto
          -446 0 callsubr
          -69 callsubr
          33 99 vvcurveto
          468 vlineto
          195 callsubr
          495 -1348 -77 callsubr
          -21 callsubr
        </CharString>
        <CharString name="Yericyrillic">
          2050 1329 438 rmoveto
          275 -240 152 -376 vhcurveto
          -170 380 -36 callgsubr
          114 -21 21 -24 -90 vvcurveto
          -56 callsubr
          665 vlineto
          389 222 172 266 hvcurveto
          532 -254 rmoveto
          1076 vlineto
          90 22 122 callsubr
          -51 callsubr
          624 49 vlineto
          -113 21 -22 24 90 vvcurveto
          -906 250 rmoveto
          -218 -99 12 callgsubr
        </CharString>
        <CharString name="Ygrave">
          1381 872 -29 callsubr
          -278 -618 -66 callsubr
        </CharString>
        <CharString name="Yhookabove">
          1381 818 120 callsubr
          24 43 16 47 hhcurveto
          62 40 -27 -45 -49 -38 -43 -77 -44 hvcurveto
          52 hlineto
          173 55 66 -83 callgsubr
          -612 -670 -66 callsubr
        </CharString>
        <CharString name="Yicyrillic">
          731 196 1553 rmoveto
          71 56 52 70 69 -56 52 -71 -70 91 callsubr
          37 callsubr
          8 -1369 -78 callsubr
          -81 callsubr
          -89 callsubr
        </CharString>
        <CharString name="Ymacron">
          1381 501 -26 callgsubr
          -295 -536 -66 callsubr
        </CharString>
        <CharString name="Ytilde">
          1381 901 64 callsubr
          19 callsubr
          -58 hhcurveto
          -105 -77 -77 -200 11 hvcurveto
          153 callsubr
          -695 -352 -66 callsubr
        </CharString>
        <CharString name="Z">
          1302 1217 hmoveto
          -76 callsubr
          204 callsubr
          endchar
        </CharString>
        <CharString name="Zacute">
          1302 616 1529 rmoveto
          384 284 rlineto
          6 -331 vlineto
          -116 -289 rlineto
          664 -1530 rmoveto
          -76 callsubr
          204 callsubr
          endchar
        </CharString>
        <CharString name="Zcaron">
          1302 931 1 callsubr
          -25 callsubr
          -49 callsubr
          226 -1837 rmoveto
          -76 callsubr
          204 callsubr
          endchar
        </CharString>
        <CharString name="Zcircumflex">
          1302 449 -58 callsubr
          -57 callsubr
          32 callsubr
          828 -1529 rmoveto
          -76 callsubr
          204 callsubr
          endchar
        </CharString>
        <CharString name="Zdotaccent">
          1302 676 -18 callsubr
          -37 callsubr
          541 -1546 rmoveto
          -76 callsubr
          204 callsubr
          endchar
        </CharString>
        <CharString name="Zdotbelow">
          73 callgsubr
          588 -157 rmoveto
          -74 -61 -55 -74 -74 61 -55 74 75 60 55 74 74 -60 55 -75 hvcurveto
          endchar
        </CharString>
        <CharString name="Zecyrillic">
          1271 1197 417 rmoveto
          237 -228 107 -269 14 vhcurveto
          250 27 202 113 201 vvcurveto
          237 -227 114 -373 -183 -153 -44 -55 -83 vhcurveto
          -9 -349 rlineto
          46 hlineto
          219 49 123 161 190 hhcurveto
          180 74 -120 -185 -200 -107 -107 -198 hvcurveto
          -123 -62 123 hlineto
          226 119 -118 -209 -233 -120 -120 -199 -173 -140 144 241 -55 hvcurveto
          -46 hlineto
          11 -350 rlineto
          -56 87 158 -47 178 hhcurveto
          366 304 130 310 hvcurveto
          endchar
        </CharString>
        <CharString name="Zetagreek">
          1302 1217 hmoveto
          -76 callsubr
          204 callsubr
          endchar
        </CharString>
        <CharString name="Zhecyrillic">
          2136 417 hmoveto
          390 706 88 2 rlineto
          -531 vlineto
          -86 -20 -23 -106 -19 vhcurveto
          -49 585 49 vlineto
          -106 19 -21 23 86 vvcurveto
          531 vlineto
          88 -2 390 -706 rlineto
          436 47 hlineto
          -69 24 -40 41 -123 221 rrcurveto
          -350 639 196 207 140 141 74 50 117 25 rlinecurve
          49 -428 -49 vlineto
          129 -19 3 -43 -103 -122 rrcurveto
          -372 -441 -88 -1 rlineto
          498 vlineto
          86 21 23 106 19 vhcurveto
          49 -585 -49 vlineto
          106 -19 20 -23 -86 vvcurveto
          -498 vlineto
          -88 1 -371 441 -103 122 3 43 129 19 rlinecurve
          49 -428 -49 vlineto
          116 -25 71 -49 140 -142 rrcurveto
          206 -220 -342 -626 -124 -221 -40 -41 -70 -24 rlinecurve
          -47 vlineto
          endchar
        </CharString>
        <CharString name="Zlinebelow">
          73 callgsubr
          297 -361 rmoveto
          582 151 -582 hlineto
          endchar
        </CharString>
        <CharString name="a">
          1156 86 callsubr
          -97 callsubr
        </CharString>
        <CharString name="a.dnum">
          707 219 -11 rmoveto
          95 73 36 57 21 hvcurveto
          -59 11 67 -31 70 hhcurveto
          52 47 13 17 25 hvcurveto
          32 71 callgsubr
          58 -169 -165 -97 -63 -76 -46 39 -35 52 50 40 38 47 34 -21 29 -30 12 vhcurveto
          6 19 21 3 22 hhcurveto
          85 46 -37 -92 hvcurveto
          -49 vlineto
          -108 -21 rlineto
          -175 -33 -64 -57 -77 vvcurveto
          -76 65 -51 98 vhcurveto
          41 159 rmoveto
          56 30 38 82 18 vhcurveto
          31 6 rlineto
          -159 vlineto
          -25 -12 -26 -13 -34 hhcurveto
          -40 -31 27 52 hvcurveto
          endchar
        </CharString>
        <CharString name="a.numr">
          695 219 688 175 callsubr
        </CharString>
        <CharString name="a.sups">
          707 219 855 175 callsubr
        </CharString>
        <CharString name="aacute">
          1156 463 -74 callsubr
          -332 vlineto
          -133 -376 rlineto
          -41 -1122 -98 callsubr
          -97 callsubr
        </CharString>
        <CharString name="abreve">
          1156 535 73 callsubr
          -19 callgsubr
          -147 -145 -108 71 103 vhcurveto
          3 -57 63 callsubr
          -176 -1153 -98 callsubr
          -97 callsubr
        </CharString>
        <CharString name="abreveacute">
          1156 828 -36 callsubr
          -17 callsubr
          292 -288 rmoveto
          180 120 88 callsubr
          -8 -96 -40 -134 hhcurveto
          -132 -97 40 61 -8 hvcurveto
          -55 hlineto
          -158 -7 120 -97 179 hhcurveto
          -176 -1110 -98 callsubr
          -97 callsubr
        </CharString>
        <CharString name="abrevecyrillic">
          1156 535 223 callsubr
          -73 -71 4 callgsubr
          63 51 51 68 68 -52 55 -69 -74 -52 -52 -78 -130 124 -113 195 hvcurveto
          -176 -1147 -98 callsubr
          -97 callsubr
        </CharString>
        <CharString name="abrevedotbelow">
          1156 535 73 callsubr
          -19 callgsubr
          -147 -145 -108 71 103 vhcurveto
          3 -57 63 callsubr
          -176 -1153 -98 callsubr
          44 callsubr
          194 -691 -62 callsubr
          -19 callsubr
        </CharString>
        <CharString name="abrevegrave">
          1156 243 117 callsubr
          292 -561 rmoveto
          180 120 88 callsubr
          -8 -96 -40 -134 hhcurveto
          -132 -97 40 61 -8 hvcurveto
          -55 hlineto
          -158 -7 120 -97 179 hhcurveto
          -176 -1110 -98 callsubr
          -97 callsubr
        </CharString>
        <CharString name="abrevehookabove">
          1156 526 1622 rmoveto
          -87 -64 -42 -53 -36 hvcurveto
          -39 vlineto
          17 23 43 14 45 hhcurveto
          67 38 237 callsubr
          73 232 callsubr
          120 88 callsubr
          -8 -96 -40 -134 hhcurveto
          -132 -97 40 61 -8 hvcurveto
          -55 hlineto
          -158 -7 120 -97 179 hhcurveto
          -176 -1110 -98 callsubr
          -97 callsubr
        </CharString>
        <CharString name="abrevetilde">
          1156 656 1406 -70 callsubr
          -28 152 callsubr
          235 callsubr
          -121 -316 rmoveto
          180 120 88 callsubr
          -8 -96 -40 -134 hhcurveto
          -132 -97 40 61 -8 hvcurveto
          -55 hlineto
          -158 -7 120 -97 179 hhcurveto
          -176 -1110 -98 callsubr
          -97 callsubr
        </CharString>
        <CharString name="acaron">
          1156 793 -9 callsubr
          74 callsubr
          -496 -1523 -98 callsubr
          -97 callsubr
        </CharString>
        <CharString name="acircumflex">
          1156 278 12 callsubr
          143 -1122 -98 callsubr
          -97 callsubr
        </CharString>
        <CharString name="acircumflexacute">
          1156 828 -36 callsubr
          -17 callsubr
          -293 vmoveto
          3 callsubr
          -273 216 -39 0 -273 -216 rlineto
          116 -1155 -98 callsubr
          -97 callsubr
        </CharString>
        <CharString name="acircumflexdotbelow">
          1156 278 12 callsubr
          143 -1122 -98 callsubr
          44 callsubr
          194 -691 -62 callsubr
          -19 callsubr
        </CharString>
        <CharString name="acircumflexgrave">
          1156 243 117 callsubr
          -566 vmoveto
          3 callsubr
          -273 216 -39 0 -273 -216 rlineto
          116 -1155 -98 callsubr
          -97 callsubr
        </CharString>
        <CharString name="acircumflexhookabove">
          1156 759 1622 rmoveto
          -85 -65 199 callsubr
          -273 216 -39 0 -273 -216 rlineto
          116 -1155 -98 callsubr
          -97 callsubr
        </CharString>
        <CharString name="acircumflextilde">
          1156 656 1406 -70 callsubr
          -28 152 callsubr
          235 callsubr
          -413 -321 rmoveto
          3 callsubr
          -273 216 -39 0 -273 -216 rlineto
          116 -1155 -98 callsubr
          -97 callsubr
        </CharString>
        <CharString name="acute">
          1024 439 -35 callsubr
          endchar
        </CharString>
        <CharString name="acutecmb">
          0 -73 -35 callsubr
          endchar
        </CharString>
        <CharString name="acutecmb.short">
          0 -60 1079 rmoveto
          385 284 rlineto
          6 -91 callsubr
          endchar
        </CharString>
        <CharString name="acutedotaccentcmb">
          0 1358 vmoveto
          64 callgsubr
          endchar
        </CharString>
        <CharString name="acutedotaccentcmb.short">
          0 1765 vmoveto
          83 callgsubr
          300 -142 rmoveto
          147 vlineto
          -600 -190 rlineto
          -42 vlineto
          endchar
        </CharString>
        <CharString name="acyrillic">
          1156 86 callsubr
          -97 callsubr
        </CharString>
        <CharString name="adblgrave">
          1156 320 121 callsubr
          95 callgsubr
          65 hlineto
          -396 -1122 -98 callsubr
          -97 callsubr
        </CharString>
        <CharString name="adieresis">
          1156 308 1155 rmoveto
          -42 callgsubr
          455 hmoveto
          80 callsubr
          92 callsubr
          -404 -1175 -98 callsubr
          -97 callsubr
        </CharString>
        <CharString name="adieresismacron">
          1156 242 35 callsubr
          129 -457 14 callsubr
          -50 -45 -62 -61 50 -44 61 hvcurveto
          -341 -1128 -98 callsubr
          -97 callsubr
        </CharString>
        <CharString name="adotaccent">
          1156 535 1146 rmoveto
          89 71 64 86 87 -71 64 -89 -88 -71 -64 -87 -86 71 -64 88 hvcurveto
          -176 -1166 -98 callsubr
          -97 callsubr
        </CharString>
        <CharString name="adotbelow">
          1156 86 callsubr
          44 callsubr
          194 -691 -62 callsubr
          -19 callsubr
        </CharString>
        <CharString name="adotmacron">
          1156 242 1417 -48 callsubr
          293 -449 rmoveto
          66 52 47 66 67 -52 48 -66 -65 -52 -48 -67 -66 51 -47 66 hvcurveto
          -176 -1124 -98 callsubr
          -97 callsubr
        </CharString>
        <CharString name="ae">
          1663 363 -20 135 callsubr
        </CharString>
        <CharString name="aeacute">
          1663 782 -35 callsubr
          -357 -1122 135 callsubr
        </CharString>
        <CharString name="aemacron">
          1663 542 -25 callgsubr
          -179 -1385 135 callsubr
        </CharString>
        <CharString name="agrave">
          1156 609 -61 callgsubr
          156 -1491 -98 callsubr
          -97 callsubr
        </CharString>
        <CharString name="ahookabove">
          1156 582 1492 rmoveto
          -121 -86 -65 -77 -38 hvcurveto
          -43 vlineto
          26 27 -95 callgsubr
          -41 -49 -87 -52 hvcurveto
          60 hlineto
          198 64 76 71 92 vvcurveto
          93 -84 64 -118 vhcurveto
          -223 -1512 -98 callsubr
          -97 callsubr
        </CharString>
        <CharString name="ainvertedbreve">
          1156 535 72 callgsubr
          57 3 hlineto
          104 107 70 146 146 53 callgsubr
          -213 vhcurveto
          -176 -1492 -98 callsubr
          -97 callsubr
        </CharString>
        <CharString name="alphagreek">
          1326 464 -19 173 callsubr
        </CharString>
        <CharString name="alphatonosgreek">
          1326 630 1103 rmoveto
          253 368 rlineto
          8 -283 vlineto
          -35 -376 rlineto
          -101 -1122 173 callsubr
        </CharString>
        <CharString name="amacron">
          1156 222 -27 callsubr
          137 -1385 -98 callsubr
          -97 callsubr
        </CharString>
        <CharString name="ampersand">
          1660 511 -21 rmoveto
          188 135 79 154 143 hvcurveto
          203 -212 rlineto
          478 47 hlineto
          -70 21 -67 48 -151 157 rrcurveto
          -186 194 137 180 132 170 51 40 102 15 rlinecurve
          49 vlineto
          -408 -2 rlineto
          -49 vlineto
          119 -16 31 -46 -96 -146 rrcurveto
          -104 -157 -308 324 -11 11 -11 11 -10 10 rlinecurve
          210 64 136 106 147 vvcurveto
          163 -148 126 -268 -277 -175 -152 -197 -115 49 -98 111 -131 vhcurveto
          -243 -70 -132 -146 -1 -188 rrcurveto
          -225 -1 180 -166 262 hhcurveto
          69 1254 rmoveto
          109 66 57 92 104 60 -100 -128 vhcurveto
          -1 -110 -43 -96 -88 -63 rrcurveto
          -138 148 -52 84 99 vvcurveto
          -219 -717 rmoveto
          89 37 76 83 53 vhcurveto
          32 -36 36 -38 40 -42 355 -371 rcurveline
          -64 -77 -77 -26 -80 hhcurveto
          -192 -157 151 208 hvcurveto
          endchar
        </CharString>
        <CharString name="anoteleiagreek">
          529 264 673 69 callgsubr
          endchar
        </CharString>
        <CharString name="aogonek">
          1158 86 callsubr
          -107 20 107 -55 119 hhcurveto
          20 20 1 2 19 hvcurveto
          -202 -100 -77 -96 -103 vvcurveto
          -105 88 -66 114 105 88 51 76 38 vhcurveto
          -1 48 rlineto
          -17 -16 -31 -10 -33 hhcurveto
          -53 -45 34 72 88 57 85 113 89 hvcurveto
          46 vlineto
          -3 -10 -14 -2 -15 hhcurveto
          -55 -41 35 83 hvcurveto
          479 vlineto
          234 -169 104 -282 -276 -171 -112 -138 -80 65 -59 82 83 65 62 80 69 -48 55 -63 13 vhcurveto
          20 44 51 11 55 hhcurveto
          154 89 -71 -183 hvcurveto
          -105 vlineto
          -196 -40 rlineto
          -306 -61 -115 -102 -150 vvcurveto
          -145 119 -97 172 vhcurveto
          32 293 rmoveto
          115 58 76 166 39 vhcurveto
          70 16 rlineto
          -330 vlineto
          -54 -27 -53 -30 -69 hhcurveto
          -82 -63 59 109 hvcurveto
          endchar
        </CharString>
        <CharString name="approxequal">
          1215 875 740 rmoveto
          200 callsubr
          -490 vmoveto
          200 callsubr
          endchar
        </CharString>
        <CharString name="aring">
          1156 242 1301 rmoveto
          -118 125 -74 168 169 125 74 119 116 -125 77 -169 -168 -125 -77 -117 vhcurveto
          203 hmoveto
          83 36 61 54 55 36 -60 -83 -86 -36 -57 -55 -54 -36 57 85 vhcurveto
          -86 -1321 -98 callsubr
          -97 callsubr
        </CharString>
        <CharString name="aringacute">
          1156 828 1480 rmoveto
          174 vlineto
          -17 callsubr
          322 -290 rmoveto
          149 99 51 79 79 -99 52 -149 hvcurveto
          -59 hlineto
          -149 -100 -52 -79 -79 100 -51 149 hvcurveto
          43 47 rmoveto
          -28 hlineto
          -46 -27 35 48 49 27 34 46 hvcurveto
          28 hlineto
          47 26 -34 -49 -48 -26 -35 -47 hvcurveto
          -190 -1158 -98 callsubr
          -97 callsubr
        </CharString>
        <CharString name="aringbelow">
          1156 86 callsubr
          44 callsubr
          -99 -556 211 callsubr
        </CharString>
        <CharString name="asciicircum">
          1215 580 1444 rmoveto
          -437 -585 70 -65 392 526 394 -527 73 65 -438 586 rlineto
          endchar
        </CharString>
        <CharString name="asciitilde">
          1215 875 496 rmoveto
          -162 -164 258 -193 hhcurveto
          -157 -104 -115 -245 hvcurveto
          91 hlineto
          180 1 70 77 99 163 165 -258 192 hhcurveto
          157 103 116 244 hvcurveto
          -91 hlineto
          -178 -1 -69 -79 -100 hhcurveto
          endchar
        </CharString>
        <CharString name="asterisk">
          775 377 1124 rmoveto
          21 hlineto
          66 191 rlineto
          93 36 -57 58 -55 hhcurveto
          -58 -55 -57 -94 36 hvcurveto
          95 -195 rmoveto
          10 -18 196 39 rlineto
          99 16 22 77 -29 48 -29 51 -77 20 -63 -79 rrcurveto
          -176 -172 rmoveto
          10 18 -129 153 rlineto
          -62 79 -79 -21 -28 -49 -28 -50 21 -76 100 -16 rrcurveto
          205 -65 rmoveto
          -9 19 -196 -39 rlineto
          -98 -16 -23 -77 28 -48 30 -51 78 -20 61 79 rrcurveto
          177 172 rmoveto
          -10 -18 129 -153 rlineto
          61 -79 79 20 28 50 30 50 -23 75 -98 16 rrcurveto
          -215 15 rmoveto
          -20 hlineto
          -66 -190 rlineto
          -93 -37 57 -59 56 hhcurveto
          58 55 58 94 -37 hvcurveto
          endchar
        </CharString>
        <CharString name="at">
          2033 550 377 rmoveto
          -206 85 -127 150 131 126 95 175 62 vhcurveto
          -2 -8 -7 -40 -9 vvcurveto
          -145 -11 77 -104 203 hhcurveto
          358 235 306 363 453 -373 303 -498 -522 -492 -390 -626 -519 386 -329 449 1 hvcurveto
          163 178 35 87 114 hvcurveto
          -1 52 rlineto
          -85 -133 -154 -22 -154 hhcurveto
          -420 -1 -352 301 484 vvcurveto
          586 463 359 476 459 335 -275 -423 -361 -232 -208 -185 -80 -44 47 120 25 vhcurveto
          152 708 -136 0 -162 -126 rlineto
          87 -31 -71 57 -112 hhcurveto
          -273 -182 -305 -310 hvcurveto
          289 -8 rmoveto
          210 98 321 157 61 39 -45 -79 1 vhcurveto
          -78 -366 rlineto
          -118 -25 -78 -108 -86 hhcurveto
          -65 -24 74 111 hvcurveto
          endchar
        </CharString>
        <CharString name="atilde">
          1156 663 -41 callsubr
          44 callgsubr
          -59 -49 22 -61 hhcurveto
          -113 -82 -85 -217 13 hvcurveto
          57 hlineto
          99 2 30 34 49 hhcurveto
          32 -54 callgsubr
          -304 -1171 -98 callsubr
          -97 callsubr
        </CharString>
        <CharString name="austral">
          1439 213 283 rmoveto
          -64 -183 -34 -32 -102 -19 rrcurveto
          -49 390 49 vlineto
          -135 21 -25 38 56 173 rrcurveto
          38 115 513 0 43 -128 53 -157 -25 -42 -133 -20 rlinecurve
          -49 646 49 vlineto
          -96 17 -37 36 -58 164 -46 130 rcurveline
          237 43 -252 hlineto
          -84 234 rlineto
          336 44 -351 hlineto
          -260 731 -200 0 -257 -731 rlineto
          -353 -44 338 hlineto
          -83 -234 rlineto
          -255 -43 240 hlineto
          189 321 rmoveto
          149 451 151 -451 rlineto
          -391 -278 rmoveto
          77 234 329 0 78 -234 rlineto
          endchar
        </CharString>
        <CharString name="austral.tnum">
          1226 -1 437 rmoveto
          -43 199 vlineto
          -32 -112 -54 -182 -29 -35 -84 -16 rlinecurve
          -49 328 49 vlineto
          -109 17 -19 36 48 178 rrcurveto
          31 114 402 0 34 -125 43 -165 -18 -38 -109 -17 rlinecurve
          -49 595 49 vlineto
          -81 15 -28 39 -49 166 -37 125 rcurveline
          196 43 -209 hlineto
          -68 234 rlineto
          277 43 -290 hlineto
          -216 733 -215 0 -214 -733 rlineto
          -292 -43 280 hlineto
          -68 -234 rlineto
          153 277 rmoveto
          114 423 115 -423 rlineto
          -304 -277 rmoveto
          64 234 252 0 63 -234 rlineto
          endchar
        </CharString>
        <CharString name="b">
          -44 callgsubr
          endchar
        </CharString>
        <CharString name="backslash">
          735 558 -280 rmoveto
          117 hlineto
          -498 1860 rlineto
          -117 hlineto
          endchar
        </CharString>
        <CharString name="baht">
          1409 63 30 rmoveto
          618 hlineto
          5 4 0 4 hhcurveto
          -219 44 220 vlineto
          315 14 279 126 260 vvcurveto
          223 -195 120 -291 10 vhcurveto
          221 13 202 97 199 vvcurveto
          203 -197 107 -334 10 vhcurveto
          219 -44 -218 vlineto
          -4 -4 0 -5 hhcurveto
          -618 108 callgsubr
          464 1278 rmoveto
          82 -3 rlineto
          31 28 -3 -5 26 hvcurveto
          -553 vlineto
          -11 -11 -1 -11 hhcurveto
          -134 -1 rlineto
          407 278 rmoveto
          -159 -71 -86 -125 -25 vhcurveto
          537 vlineto
          136 -40 60 -98 -129 vvcurveto
          -407 -335 rmoveto
          134 -2 rlineto
          11 11 -1 -1 11 hvcurveto
          -633 vlineto
          -4 -27 -28 -3 -30 hhcurveto
          -82 -3 rlineto
          457 332 rmoveto
          -162 -85 -110 -161 -41 vhcurveto
          618 vlineto
          160 -30 86 -119 -156 vvcurveto
          endchar
        </CharString>
        <CharString name="baht.tnum">
          1226 31 34 rmoveto
          561 hlineto
          5 5 0 4 hhcurveto
          -223 44 225 vlineto
          291 14 252 126 250 46 callgsubr
          196 -177 103 -307 12 vhcurveto
          223 -44 -222 vlineto
          -4 -5 0 -5 hhcurveto
          -561 58 callgsubr
          438 1270 rmoveto
          68 -2 25 -1 23 -2 21 -5 rlinecurve
          -551 vlineto
          -1 -9 -9 -1 -10 hhcurveto
          -109 -1 rlineto
          352 285 rmoveto
          -156 -62 -91 -109 -28 vhcurveto
          533 vlineto
          115 -39 56 -94 -125 vvcurveto
          -352 -341 rmoveto
          109 -2 rlineto
          10 9 0 -1 9 hvcurveto
          -632 vlineto
          -22 -4 -23 -2 -24 -1 -68 -2 rcurveline
          399 327 rmoveto
          -159 -79 -108 -139 -41 vhcurveto
          615 vlineto
          141 -32 77 -118 -157 vvcurveto
          endchar
        </CharString>
        <CharString name="bar">
          735 309 -280 rmoveto
          117 1860 -117 hlineto
          endchar
        </CharString>
        <CharString name="bdotaccent">
          1261 308 1596 70 callgsubr
          882 -1089 179 callsubr
          endchar
        </CharString>
        <CharString name="bdotbelow">
          -44 callgsubr
          -215 -894 -62 callsubr
          -19 callsubr
        </CharString>
        <CharString name="becyrillic">
          1277 1205 495 rmoveto
          296 -213 192 -329 -240 -176 -132 -192 -69 vhcurveto
          -8 39 -4 43 47 vvcurveto
          200 87 154 395 33 vhcurveto
          115 11 299 25 89 89 15 227 rlinecurve
          -51 hlineto
          -17 -52 -68 -12 -228 -22 -234 -24 -139 -56 -121 -105 rrcurveto
          -142 -124 -84 -212 -315 vvcurveto
          -378 187 -247 368 306 262 203 312 vhcurveto
          -347 -16 rmoveto
          -299 -80 -134 -134 -141 -73 175 266 280 75 152 143 136 74 -162 -278 vhcurveto
          endchar
        </CharString>
        <CharString name="betagreek">
          1261 123 -460 rmoveto
          336 hlineto
          -4 218 -4 189 -3 165 rrcurveto
          -75 50 106 -57 131 hhcurveto
          229 216 149 284 272 -172 175 -258 23 hvcurveto
          185 17 165 107 180 vvcurveto
          198 -168 123 -298 -297 -209 -151 -397 -1 vhcurveto
          311 171 rmoveto
          204 58 104 133 120 59 -104 -164 -166 -79 -101 -171 -8 vhcurveto
          1 -228 rlineto
          204 -7 118 -117 -199 vvcurveto
          -181 -105 -84 -127 -89 -78 38 57 -35 vhcurveto
          -8 502 -1 265 189 vvcurveto
          endchar
        </CharString>
        <CharString name="bitcoin">
          1401 63 30 rmoveto
          481 -219 43 219 87 hlineto
          51 50 3 6 48 hvcurveto
          -228 44 234 vlineto
          255 40 203 125 221 vvcurveto
          223 -196 120 -291 10 vhcurveto
          223 13 202 97 199 vvcurveto
          174 -145 103 -251 33 vhcurveto
          229 -44 -225 vlineto
          5 -46 -50 2 -53 hhcurveto
          -87 218 -43 -218 -481 108 callgsubr
          864 990 rmoveto
          -189 -101 -86 -172 -2 vhcurveto
          -127 -1 0 566 75 -3 rlineto
          228 -7 97 -114 -164 vvcurveto
          50 -650 rmoveto
          -201 -131 -120 -244 -8 vhcurveto
          -75 -3 0 647 127 -2 rlineto
          210 -3 113 -130 -180 vvcurveto
          endchar
        </CharString>
        <CharString name="bitcoin.tnum">
          1226 31 34 rmoveto
          436 -223 43 223 82 hlineto
          48 48 3 6 46 hvcurveto
          -232 44 239 vlineto
          233 41 182 123 212 46 callgsubr
          167 -129 100 -228 33 vhcurveto
          234 -43 -229 vlineto
          5 -44 -48 2 -50 hhcurveto
          -82 222 -43 -222 -436 58 callgsubr
          788 991 rmoveto
          -188 -89 -93 -154 -3 vhcurveto
          -104 -1 rlineto
          563 33 vlineto
          30 -1 rlineto
          191 -7 93 -109 -161 vvcurveto
          46 -659 rmoveto
          -198 -121 -118 -209 -8 vhcurveto
          -63 -2 0 644 104 -2 rlineto
          187 -3 102 -133 -180 vvcurveto
          endchar
        </CharString>
        <CharString name="blinebelow">
          -44 callgsubr
          -506 -833 -87 callgsubr
        </CharString>
        <CharString name="braceleft">
          735 508 1015 rmoveto
          242 vlineto
          158 19 115 165 vhcurveto
          50 -39 vlineto
          -295 -139 -125 -247 hvcurveto
          -325 vlineto
          -154 -73 -55 -118 vhcurveto
          -47 vlineto
          118 73 -55 -157 hvcurveto
          -323 vlineto
          -247 139 -125 295 vhcurveto
          39 50 hlineto
          -165 -19 115 159 hvcurveto
          242 vlineto
          227 -120 110 -257 28 vhcurveto
          259 27 118 111 226 vvcurveto
          endchar
        </CharString>
        <CharString name="braceright">
          735 226 1015 rmoveto
          -226 119 -111 258 -27 vhcurveto
          -256 -28 -121 -110 -227 vvcurveto
          -242 vlineto
          -159 -18 -115 -165 vhcurveto
          -50 38 vlineto
          296 138 125 247 hvcurveto
          323 vlineto
          157 74 55 117 vhcurveto
          47 vlineto
          -117 -74 55 154 hvcurveto
          325 vlineto
          247 -138 125 -296 vhcurveto
          -38 -50 hlineto
          165 18 -115 -158 hvcurveto
          endchar
        </CharString>
        <CharString name="bracketleft">
          735 178 -286 rmoveto
          499 6 0 51 -215 11 0 1736 215 11 0 51 -499 6 rlineto
          endchar
        </CharString>
        <CharString name="bracketright">
          735 556 1586 rmoveto
          -498 -6 0 -51 214 -11 0 -1736 -214 -11 0 -51 498 -6 rlineto
          endchar
        </CharString>
        <CharString name="breve">
          1024 512 1133 rmoveto
          212 104 153 151 22 -2 20 43 callgsubr
          88 callgsubr
        </CharString>
        <CharString name="breveacutecmb">
          123 callsubr
          292 -288 rmoveto
          180 1 callgsubr
        </CharString>
        <CharString name="breveacutecmb.short">
          0 300 23 callsubr
          -41 vlineto
          300 -237 104 callsubr
        </CharString>
        <CharString name="brevebelowcmb">
          0 -446 vmoveto
          198 96 137 136 20 -2 147 callsubr
        </CharString>
        <CharString name="brevecmb">
          0 1133 vmoveto
          212 104 153 151 22 -2 20 43 callgsubr
          88 callgsubr
        </CharString>
        <CharString name="brevecmb.short">
          0 1117 vmoveto
          52 callgsubr
          -130 -128 -97 63 92 vhcurveto
          2 -54 vlineto
          -3 -15 -1 -18 callgsubr
          endchar
        </CharString>
        <CharString name="brevecyrilliccmb">
          0 1127 vmoveto
          34 callgsubr
          6 0 1 5 hvcurveto
          -43 -45 -69 -29 -89 hhcurveto
          -89 -69 29 43 -45 hvcurveto
          -1 6 5 0 5 hhcurveto
          63 52 51 68 68 -52 55 -70 -73 -28 callgsubr
          endchar
        </CharString>
        <CharString name="brevecyrilliccmb.short">
          0 1566 vmoveto
          194 126 108 128 72 -51 52 -70 -69 -50 -53 -65 -64 50 -50 61 hvcurveto
          4 36 callgsubr
          60 42 callgsubr
          endchar
        </CharString>
        <CharString name="brevegravecmb">
          0 -292 219 callsubr
          292 -561 rmoveto
          180 1 callgsubr
        </CharString>
        <CharString name="brevegravecmb.short">
          0 -300 84 callsubr
          300 -469 104 callsubr
        </CharString>
        <CharString name="brevehookabovecmb">
          0 -9 1622 rmoveto
          -87 -52 callgsubr
          37 237 callsubr
          74 232 callsubr
          1 callgsubr
        </CharString>
        <CharString name="brevehookabovecmb.short">
          0 -9 1993 rmoveto
          -89 -66 -37 -44 -37 hvcurveto
          -33 vlineto
          14 23 45 12 46 hhcurveto
          68 39 -26 -36 -36 -36 -28 -73 -14 hvcurveto
          44 -26 rlineto
          148 22 75 39 74 vvcurveto
          72 -83 47 -104 vhcurveto
          9 -455 104 callsubr
        </CharString>
        <CharString name="brevetildecmb">
          0 120 1406 -70 callsubr
          -27 -22 -51 hhcurveto
          -29 -31 7 -92 callgsubr
          -5 callsubr
          166 callsubr
          -120 -316 rmoveto
          180 1 callgsubr
        </CharString>
        <CharString name="brevetildecmb.short">
          0 124 1807 68 callsubr
          -19 -51 hhcurveto
          -31 -31 7 11 -41 hvcurveto
          -37 11 155 callsubr
          31 31 -7 -31 callgsubr
          -124 -269 104 callsubr
        </CharString>
        <CharString name="brokenbar">
          735 309 789 rmoveto
          117 791 -117 hlineto
          -1860 vmoveto
          117 791 -117 hlineto
          endchar
        </CharString>
        <CharString name="bullet">
          718 359 -1 callgsubr
        </CharString>
        <CharString name="c">
          1055 601 -20 13 callsubr
        </CharString>
        <CharString name="cacute">
          1055 536 -35 callsubr
          127 -1122 13 callsubr
        </CharString>
        <CharString name="caret">
          529 242 hmoveto
          -279 -362 56 -56 244 318 245 -319 58 55 -279 364 rlineto
          endchar
        </CharString>
        <CharString name="caron">
          1024 769 24 callsubr
          109 callgsubr
        </CharString>
        <CharString name="caroncmb">
          0 257 24 callsubr
          109 callgsubr
        </CharString>
        <CharString name="caroncmb.short">
          0 255 1387 rmoveto
          -241 -135 -25 callsubr
          -49 callsubr
          endchar
        </CharString>
        <CharString name="carondotaccentcmb">
          0 1358 vmoveto
          162 callsubr
          37 callgsubr
          endchar
        </CharString>
        <CharString name="carondotaccentcmb.short">
          0 1785 vmoveto
          169 callsubr
          308 -10 rmoveto
          -308 89 callgsubr
          endchar
        </CharString>
        <CharString name="caronslovak">
          1024 422 1076 rmoveto
          231 413 -237 0 -44 -413 rlineto
          endchar
        </CharString>
        <CharString name="caronslovakcmb">
          0 67 1076 rmoveto
          231 413 -236 0 -45 -413 rlineto
          endchar
        </CharString>
        <CharString name="ccaron">
          1055 866 24 callsubr
          243 callsubr
          -328 -1523 13 callsubr
        </CharString>
</ttFont>
